<svg xmlns="http://www.w3.org/2000/svg" width="752.401" height="560.313"><path fill="#6D2DF6" fill-rule="evenodd" d="M130.4.313c39.254-2.88 65.42 14.12 78.5 51 5.882 23.23 1.715 44.397-12.5 63.5 2.289.418 4.289-.249 6-2a2493.272 2493.272 0 0 1 63-56c10.648-6.665 21.98-8.165 34-4.5 43.956-14.73 83.956-7.563 120 21.5 29.08 25.764 51.246 56.597 66.5 92.5a510.872 510.872 0 0 1 25 72 2402.676 2402.676 0 0 1 20 95 725.714 725.714 0 0 1 49-74c20.913-25.923 45.746-47.089 74.5-63.5 28.58-14.56 58.914-21.728 91-21.5v30c-41.257.582-77.59 14.082-109 40.5a326.373 326.373 0 0 0-45.5 50.5 747.372 747.372 0 0 0-46.5 77c16.385 39.545 43.385 69.38 81 89.5 37.463 17.973 74.797 17.807 112-.5a248.196 248.196 0 0 1 15 26c-21.892 12.015-45.392 18.015-70.5 18-55.75-2.374-100.75-25.374-135-69a404.857 404.857 0 0 1-21-32c-11.612 20.713-25.78 39.547-42.5 56.5-30.026 22.935-60.36 23.268-91 1-12.86-13.205-22.026-28.705-27.5-46.5a280.579 280.579 0 0 1-8-32 2084.97 2084.97 0 0 1-11-76c-1.868-17.477-6.534-34.144-14-50a28.977 28.977 0 0 0-9-9c-4.18 15.85-14.347 25.016-30.5 27.5-31.016-.13-62.016-1.13-93-3a25.648 25.648 0 0 1-7.5-2.5 156.422 156.422 0 0 0 0 25 2461.096 2461.096 0 0 0 50 80 98.473 98.473 0 0 1 7 18 7864.008 7864.008 0 0 1 20 123c1.215 25.28-10.618 39.946-35.5 44-19.768-.98-32.602-10.98-38.5-30a3857.744 3857.744 0 0 1-27-95c-4.536-12.079-10.87-23.079-19-33a230.938 230.938 0 0 1-13 43 2885.599 2885.599 0 0 1-73.5 105.5c-14.6 11.478-29.933 12.478-46 3-16.265-12.893-20.432-29.06-12.5-48.5a5351.471 5351.471 0 0 1 45-87 314.124 314.124 0 0 0 13-72 6998.862 6998.862 0 0 0 2.5-57.5 4130.828 4130.828 0 0 0-4-97.5c-1.067-19.289 3.1-37.289 12.5-54 6.54-8.523 14.707-15.023 24.5-19.5-20.283-22.753-25.45-48.586-15.5-77.5 9.757-21.27 25.924-34.605 48.5-40Zm5 30c22.517-1.307 37.35 8.693 44.5 30 3.93 17.546-1.235 31.713-15.5 42.5-21.288 9.792-38.454 4.96-51.5-14.5-9.093-18.08-6.927-34.58 6.5-49.5 4.994-3.66 10.328-6.494 16-8.5Zm195 45c21.356-1.91 41.023 2.922 59 14.5 22.049 16.048 39.882 35.881 53.5 59.5 20.39 37.498 35.058 77.165 44 119a7093.948 7093.948 0 0 1 13 67 382.73 382.73 0 0 0 10.5 34.5c-12.363 24.402-27.696 46.735-46 67-21.066 16.19-40.566 14.356-58.5-5.5-9.884-16.317-16.218-33.984-19-53a3576.494 3576.494 0 0 0-16-102c-2.944-14.845-8.611-28.512-17-41-10.542-12.52-24.042-19.02-40.5-19.5-7.515-7.175-16.515-10.842-27-11a873.368 873.368 0 0 1-60-6.5 64.603 64.603 0 0 1-6-7.5c6.175-1.167 11.84-3.5 17-7a4083.434 4083.434 0 0 0 76.5-75.5c7.003-9.17 9.17-19.338 6.5-30.5a135.21 135.21 0 0 0 10-2.5Zm-45 5c5.256 1.177 6.756 4.177 4.5 9a3464.034 3464.034 0 0 1-70.5 69.5 96.298 96.298 0 0 1-24 5c-10.994.5-21.994.667-33 .5-.48 46.001-.647 92.001-.5 138a1236.618 1236.618 0 0 0 54 89 57.56 57.56 0 0 1 3 8 5913.042 5913.042 0 0 1 20.5 123c-1.123 4.88-4.123 7.38-9 7.5-3.233-1.944-5.4-4.778-6.5-8.5a3147.882 3147.882 0 0 1-24-86c-5.84-21.022-15.84-39.689-30-56a992.41 992.41 0 0 1-37-38 3504.317 3504.317 0 0 0-20 80 81.58 81.58 0 0 1-5 11 6686.547 6686.547 0 0 0-62 91 39.591 39.591 0 0 1-8 7c-4.031-1.076-6.531-3.576-7.5-7.5a3996.894 3996.894 0 0 1 46.5-92.5 340.13 340.13 0 0 0 15-79 1153.136 1153.136 0 0 0-1.5-160.5c-.443-12.03 1.724-23.53 6.5-34.5 4.44-6.476 10.606-10.31 18.5-11.5 23.504-.56 47.004-.393 70.5.5l20.5-.5c5.732-1.365 10.732-4.03 15-8a1684.382 1684.382 0 0 1 64-56.5Zm-93 125a403.038 403.038 0 0 0 16 18.5 36.16 36.16 0 0 0 7 4 2545.593 2545.593 0 0 0 74 8c4.193 2.24 4.86 5.24 2 9a936.631 936.631 0 0 1-87-2c-11.514-9.863-15.514-22.363-12-37.5Z" opacity=".97"/></svg>