<svg xmlns="http://www.w3.org/2000/svg" width="883" height="709"><g fill="#6D2DF6" fill-rule="evenodd" opacity=".973"><path d="M350.966.021c47.672-.814 77.172 21.853 88.5 68 3.804 40.82-12.696 69.986-49.5 87.5-40.537 13.153-73.37 2.653-98.5-31.5-18.152-33.009-16.152-64.675 6-95 14.416-16.122 32.25-25.789 53.5-29Zm6 34c29.506 1.674 45.84 17.173 49 46.5-2.756 27.923-18.089 43.423-46 46.5-22.514-1.354-37.347-12.688-44.5-34-5.157-27.19 5.01-46.024 30.5-56.5a306.61 306.61 0 0 0 11-2.5ZM353.966 173.021c33.147-.512 58.98 12.822 77.5 40l36.5 75c42.375.522 84.71 1.355 127 2.5 23.67 8.49 36.337 25.323 38 50.5-1.648 26.808-15.315 43.974-41 51.5a2872.674 2872.674 0 0 1-150 1c-22.303-2.234-40.803-11.734-55.5-28.5a2427.938 2427.938 0 0 1-37-55c-2.63-13.422 2.702-21.422 16-24a31.147 31.147 0 0 1 10.5 3.5 1571.207 1571.207 0 0 1 37.5 53.5c7.441 8.14 16.608 13.306 27.5 15.5 48.333.667 96.667.667 145 0 11.09-5.349 14.59-13.849 10.5-25.5-2.618-4.616-6.45-7.783-11.5-9.5a4657.847 4657.847 0 0 1-135-2c-3.235-1.36-5.735-3.527-7.5-6.5a2521.45 2521.45 0 0 0-44-89c-14.593-16.309-32.427-21.475-53.5-15.5-15.749 6.755-25.249 18.59-28.5 35.5-.667 57-.667 114 0 171 5.191 36.855 25.357 61.355 60.5 73.5 4.6 1.317 9.266 2.317 14 3 55.058.012 110.058.68 165 2l4 2 114 114c13.922 7.801 25.09 4.967 33.5-8.5 2.65-7.872 1.65-15.206-3-22a9671.718 9671.718 0 0 0-117.5-116.5c-11.187-7.845-23.52-13.178-37-16a2913.755 2913.755 0 0 0-104-2c-11.038-3.57-15.205-11.07-12.5-22.5 1.833-5.167 5.333-8.667 10.5-10.5 35-.667 70-.667 105 0 24.956 3.15 46.956 12.816 66 29a10174.13 10174.13 0 0 1 119.5 120.5c14.728 27.46 11.228 52.294-10.5 74.5-13.804 10.965-29.47 14.965-47 12-9.19-1.763-17.525-5.43-25-11l-109-109-145-1c-51.634-3.72-87.8-29.22-108.5-76.5a131.466 131.466 0 0 1-7-29c-.667-61-.667-122 0-183 8.25-39.085 32.082-61.419 71.5-67Z"/><path d="M172.966 183.021c21.003-.167 42.003 0 63 .5 7.856.858 13.022 5.025 15.5 12.5a3657.25 3657.25 0 0 1-1 170 25.55 25.55 0 0 1-5.5 6.5c-52.084 39.026-75.25 91.192-69.5 156.5 11.814 70.482 51.647 116.982 119.5 139.5 66.441 16.02 123.274-.48 170.5-49.5 16.283-18.665 27.95-39.998 35-64 5.746-8.692 13.58-11.192 23.5-7.5 6.22 3.27 9.22 8.437 9 15.5-17.913 63.088-57.246 107.255-118 132.5-80.932 27.815-152.932 13.148-216-44-55.873-59.993-72.039-129.493-48.5-208.5 13.095-37.578 35.261-68.578 66.5-93 1-43.995 1.333-87.995 1-132-15.337.167-30.67 0-46-.5-13.123-4.683-16.957-13.517-11.5-26.5 3.378-4.094 7.545-6.76 12.5-8Z"/></g></svg>