<svg xmlns="http://www.w3.org/2000/svg" width="883" height="700"><g fill="#6D2DF6" fill-rule="evenodd"><path d="M428.929.368c43.742-3.227 74.909 14.773 93.5 54 13.974 42.965 3.14 78.132-32.5 105.5-34.315 20-67.981 19-101-3-32.82-28.437-41.986-63.271-27.5-104.5 13.976-28.553 36.476-45.887 67.5-52Zm6 34c31.166-.65 50.666 14.017 58.5 44 2.222 31.734-11.945 51.901-42.5 60.5-33.612 2.371-54.112-12.796-61.5-45.5-.776-32.048 14.39-51.715 45.5-59Z" opacity=".973"/><path d="M188.929 108.368c18.82 1.315 24.653 10.649 17.5 28-9.98 9.093-14.812 20.426-14.5 34a74.763 74.763 0 0 0 3.5 22 205.643 205.643 0 0 1 15 43c5.336 24.669 1.003 47.336-13 68a101.553 101.553 0 0 1-12.5 11.5c-7.534 3.538-14.867 3.205-22-1-5.592-7.259-6.426-15.092-2.5-23.5 12.202-8.403 18.035-20.07 17.5-35-.81-15.6-4.977-30.267-12.5-44-9.112-24.139-9.78-48.472-2-73 4.566-9.969 10.732-18.803 18.5-26.5l7-3.5Z" opacity=".971"/><path d="M253.929 108.368c17.205.73 23.372 9.397 18.5 26-15.655 15.959-19.99 34.625-13 56a412.363 412.363 0 0 1 14 37c5.469 21.025 4.469 41.692-3 62-5.367 10.696-12.867 19.529-22.5 26.5-17.243 4.746-25.743-1.754-25.5-19.5 3.506-6.517 8.173-12.184 14-17 7.459-14.521 8.459-29.521 3-45a157.702 157.702 0 0 0-9-22c-11.975-28.055-11.308-55.722 2-83 5.133-9.302 12.299-16.302 21.5-21ZM637.929 108.368c12.324-.506 19.324 5.327 21 17.5-.706 6.912-3.873 12.412-9.5 16.5-10.02 16.172-11.686 33.172-5 51 8.143 15.764 13.477 32.43 16 50 3.27 23.012-2.063 43.678-16 62a75.99 75.99 0 0 1-14.5 11.5c-19.496 1.84-26.662-6.66-21.5-25.5 12.239-8.81 18.406-20.81 18.5-36a98.49 98.49 0 0 0-4.5-25c-8.766-16.632-14.1-34.298-16-53-2.076-25.783 6.09-47.617 24.5-65.5l7-3.5Z" opacity=".969"/><path d="M702.929 108.368c14.908.464 21.408 8.131 19.5 23a222.537 222.537 0 0 0-14 21c-4.506 12.966-4.506 25.966 0 39a225.212 225.212 0 0 1 15 42c5.747 24.791 1.747 47.791-12 69-4.96 5.965-10.792 10.798-17.5 14.5-16.318 2.015-23.818-5.152-22.5-21.5l3-6c11.79-8.165 17.623-19.498 17.5-34-1.57-15.876-6.07-30.876-13.5-45-11.211-28.366-9.878-56.033 4-83a119.908 119.908 0 0 1 11.5-14.5c2.824-2.079 5.824-3.579 9-4.5Z" opacity=".97"/><path d="M377.929 179.368c45.69-.453 91.358.047 137 1.5 29.16 6.5 48.993 23.666 59.5 51.5a16278.222 16278.222 0 0 1 34 121c3.934 24.883-3.9 45.05-23.5 60.5 6.29 3.956 11.624 8.956 16 15l109 1c13.346 5.368 16.846 14.535 10.5 27.5-3.016 3.592-6.85 5.758-11.5 6.5-30.998.5-61.998.667-93 .5a5440.106 5440.106 0 0 1-27.5 202c-7.262 21.474-22.262 32.808-45 34-34.887-4.898-50.22-24.898-46-60a5313.706 5313.706 0 0 0 12-145l-59.5-37.5a151.252 151.252 0 0 1-10.5-3.5 3338.026 3338.026 0 0 0-66 41 8858.834 8858.834 0 0 0 13.5 157.5c-2.42 28.92-18.087 44.754-47 47.5-25.994-1.831-41.494-15.497-46.5-41a55793.348 55793.348 0 0 0-25-176c-.5-6.325-.666-12.658-.5-19-31.335.167-62.668 0-94-.5-12.9-3.969-17.066-12.469-12.5-25.5 2.697-4.936 6.864-7.77 12.5-8.5l108-1a91.41 91.41 0 0 1 17-15c-19.288-14.754-27.455-34.254-24.5-58.5a17404.829 17404.829 0 0 1 35-125c12.784-30.631 35.617-47.631 68.5-51Zm-4 35c45-.167 90 0 135 .5 14.653 3.315 25.153 11.815 31.5 25.5a15770.029 15770.029 0 0 1 34 119c1.68 15.485-4.82 25.652-19.5 30.5-16.76 4.19-33.426 8.69-50 13.5-1.726-9.518-5.393-18.185-11-26a3.647 3.647 0 0 1 1-1.5 580.989 580.989 0 0 0 23-6c11.065-6.3 15.565-15.8 13.5-28.5a1457.478 1457.478 0 0 0-21-57c-7.534-7.875-16.034-9.042-25.5-3.5-5.448 5.069-7.281 11.236-5.5 18.5a495.961 495.961 0 0 1 14 41 5790.061 5790.061 0 0 1-51.5 13 2012.911 2012.911 0 0 1-52.5-13 716.072 716.072 0 0 1 14-40c2.78-13.467-2.553-21.133-16-23-9.723.529-15.723 5.529-18 15a2308.598 2308.598 0 0 0-18 51c-.998 13.186 4.502 22.353 16.5 27.5a9470.459 9470.459 0 0 1 93 23c8.24 5.386 10.408 12.552 6.5 21.5-4.431 5.967-10.265 8.133-17.5 6.5l-122-32c-14.044-4.372-20.544-13.872-19.5-28.5l32-114c5.122-17.29 16.289-28.29 33.5-33Zm-36 214a986.034 986.034 0 0 1 54 14.5l-42 26c-7.613 6.392-11.613 14.559-12 24.5a5153.96 5153.96 0 0 1 13.5 164c-4.55 8.31-11.05 10.143-19.5 5.5-2.436-2.707-3.936-5.873-4.5-9.5a17071.59 17071.59 0 0 1-25.5-182c.283-11.399 4.95-20.566 14-27.5a374.409 374.409 0 0 0 22-15.5Zm205 0a63.436 63.436 0 0 1 13 7.5 180.04 180.04 0 0 1 17.5 13.5c5.187 6.392 7.687 13.726 7.5 22a11081.654 11081.654 0 0 1-25.5 184c-3.176 9.175-9.343 12.009-18.5 8.5-4.391-3-6.391-7.167-6-12.5a4881.175 4881.175 0 0 0 13.5-165c-1.316-5.467-3.816-10.3-7.5-14.5a1034.048 1034.048 0 0 0-46-29c17.439-4.857 34.773-9.69 52-14.5Z" opacity=".973"/></g></svg>