<svg xmlns="http://www.w3.org/2000/svg" width="606.599" height="606.864"><g fill="#6D2DF6" fill-rule="evenodd"><path d="M427.704 0c53.753.471 98.92 20.138 135.5 59 40.036 51.165 52.369 108.498 37 172-29.455 100.79-94.955 164.29-196.5 190.5a830.83 830.83 0 0 1-59 7 805.858 805.858 0 0 0-111 31c-21.884 8.268-41.884 19.602-60 34a8158.586 8158.586 0 0 0-108 107c-9.896 7.757-20.229 8.423-31 2a593.448 593.448 0 0 1-29.5-28.5c-7.551-11.803-6.885-23.136 2-34a6716.125 6716.125 0 0 1 98-97c20.731-23.78 36.064-50.78 46-81 17.965-49.19 28.965-99.856 33-152 11.528-58.572 39.695-107.405 84.5-146.5 45.523-39.679 98.523-60.845 159-63.5Zm23 55c.997-1.213 1.997-1.046 3 .5-1.077.47-2.077.303-3-.5Zm-41 0a12.93 12.93 0 0 1 5 .5 469.033 469.033 0 0 1 18 18.5 312.323 312.323 0 0 1-21 21 608.175 608.175 0 0 1-21-20.5 522.556 522.556 0 0 0 19-19.5Zm72 9c10.314 3.325 19.647 8.492 28 15.5a395.674 395.674 0 0 1-17 16.5 667.23 667.23 0 0 1-22-21.5 160.687 160.687 0 0 1 11-10.5Zm-132 7c1.946.754 2.779 2.088 2.5 4l-21 21a120.678 120.678 0 0 0-8.5-10 545.95 545.95 0 0 1 27-15Zm21 24a211.005 211.005 0 0 1 22 20.5 550.98 550.98 0 0 1-20 19.5 608.175 608.175 0 0 1-21-20.5 522.556 522.556 0 0 0 19-19.5Zm81 0a2.428 2.428 0 0 1 2 .5 495.455 495.455 0 0 0 18 19.5c-6.333 7-13 13.667-20 20a134.675 134.675 0 0 1-19-20c6.355-6.687 12.688-13.354 19-20Zm76 4c1.574.437 2.741 1.437 3.5 3a345.291 345.291 0 0 1 11.5 22 10.258 10.258 0 0 1-1.5 4 51.057 51.057 0 0 0-8 9 667.23 667.23 0 0 1-21.5-22 181.102 181.102 0 0 1 16-16Zm-228 3a119.617 119.617 0 0 1 13 13 608.175 608.175 0 0 1-20.5 21l-12.5-12.5c6.79-7.104 13.457-14.27 20-21.5Zm32 32a605.464 605.464 0 0 1 21 20.5l-20.5 20.5-20.5-20.5a577.46 577.46 0 0 0 20-20.5Zm160 1c7.624 5.624 14.291 12.291 20 20-6.333 7-13 13.667-20 20a550.98 550.98 0 0 1-20-19.5 577.46 577.46 0 0 0 20-20.5Zm-79 1a542.108 542.108 0 0 1 20 19.5 550.98 550.98 0 0 1-20 19.5c-6.667-6-13-12.333-19-19 6.355-6.687 12.688-13.354 19-20Zm-151 9c4.25 2.579 7.917 5.912 11 10a608.175 608.175 0 0 1-20.5 21 25.55 25.55 0 0 0-5.5-6.5 307.808 307.808 0 0 0 15-24.5Zm290 8c1.073.751 1.24 1.751.5 3-1.728-.852-1.895-1.852-.5-3Zm-100 21a605.464 605.464 0 0 1 21 20.5l-20.5 20.5-20.5-20.5a577.46 577.46 0 0 0 20-20.5Zm80 0a211.005 211.005 0 0 1 22 20.5 212.988 212.988 0 0 1-21 21.5 312.323 312.323 0 0 1-21-21c6.688-7.02 13.355-14.02 20-21Zm-240 1a191.515 191.515 0 0 1 21 19.5l-20.5 20.5-20.5-20.5a547.318 547.318 0 0 1 20-19.5Zm80 0c7.591 5.921 14.591 12.588 21 20-6.333 7-13 13.667-20 20-7-6.333-13.667-13-20-20 6.355-6.687 12.688-13.354 19-20Zm-119 39a282.878 282.878 0 0 1 20 20 70692.484 70692.484 0 0 0-21 20c-6.667-6-13-12.333-19-19 6.688-7.02 13.355-14.02 20-21Zm80 0a282.878 282.878 0 0 1 20 20 608.175 608.175 0 0 1-20.5 21 550.98 550.98 0 0 1-19.5-20c6.688-7.02 13.355-14.02 20-21Zm79 0a575.438 575.438 0 0 0 20 20.5l-20.5 20.5a550.98 550.98 0 0 1-19.5-20c6.688-7.02 13.355-14.02 20-21Zm80 0a605.464 605.464 0 0 1 21 20.5l-20.5 20.5-20.5-20.5a577.46 577.46 0 0 0 20-20.5Zm-200 40a282.878 282.878 0 0 1 20 20 550.98 550.98 0 0 1-19.5 20 894.604 894.604 0 0 0-19.5-20.5 522.556 522.556 0 0 0 19-19.5Zm80 0a601.557 601.557 0 0 1 21 20.5l-20.5 20.5-20.5-20.5a577.46 577.46 0 0 0 20-20.5Zm79 0c7.591 5.921 14.591 12.588 21 20a550.98 550.98 0 0 1-19.5 20 550.98 550.98 0 0 1-19.5-20 252.788 252.788 0 0 0 18-20Zm81 0c2.973.465 4.14 2.132 3.5 5a456.087 456.087 0 0 1-14 25l-9.5-9.5a577.46 577.46 0 0 0 20-20.5Zm-306 12a45.408 45.408 0 0 1 8 8 46.607 46.607 0 0 1-5.5 6 101.882 101.882 0 0 1-2.5-14Zm26 28c7.591 5.921 14.591 12.588 21 20a312.323 312.323 0 0 1-21 21c-6.121-7.396-11.121-15.562-15-24.5a350.494 350.494 0 0 1 15-16.5Zm80 0a282.878 282.878 0 0 1 20 20c-6.333 7-13 13.667-20 20a550.98 550.98 0 0 1-20-19.5 577.46 577.46 0 0 0 20-20.5Zm79 0c7.591 5.921 14.591 12.588 21 20a550.98 550.98 0 0 1-19.5 20l-20.5-20.5a522.556 522.556 0 0 0 19-19.5Zm80 0c5.254 3.583 9.92 7.916 14 13a614.042 614.042 0 0 1-21.5 20l-11.5-13c6.355-6.687 12.688-13.354 19-20Zm-198 39a666.266 666.266 0 0 1 22 21.5l-16.5 16.5c-9.732-3.911-18.566-9.244-26.5-16 7.021-7.354 14.021-14.687 21-22Zm159 0a60.036 60.036 0 0 1 11 11.5 1046.148 1046.148 0 0 0-26.5 15.5l-5-4c-.667-.667-.667-1.333 0-2a605.464 605.464 0 0 0 20.5-21Zm-80 1a282.878 282.878 0 0 1 20 20 550.98 550.98 0 0 1-19.5 20 550.98 550.98 0 0 1-19.5-20c6.355-6.687 12.688-13.354 19-20Zm-160 20a238.637 238.637 0 0 0 41 41 1174.182 1174.182 0 0 1-67 25.5 8127.692 8127.692 0 0 0 26-66.5Zm121 19a25.122 25.122 0 0 1 7 7.5 35.773 35.773 0 0 1-13-2c2.496-1.331 4.496-3.164 6-5.5Zm-215 89a970.789 970.789 0 0 1 26.5 26c.667.667.667 1.333 0 2a4227.75 4227.75 0 0 1-95.5 94 265.223 265.223 0 0 1-24.5-23c-.982-1.259-1.315-2.592-1-4a12702.169 12702.169 0 0 0 94.5-95Z" opacity=".979"/><path d="M502.704 428c30.661-1.423 53.828 10.91 69.5 37 13.782 31.475 8.949 59.642-14.5 84.5-22.933 18.686-48.267 22.686-76 12-33.757-18.021-46.59-45.855-38.5-83.5 9.71-28.888 29.543-45.555 59.5-50Zm6 34c8.929 1.857 11.429 6.857 7.5 15-7.642 4.6-12.809 2.6-15.5-6 1.317-4.311 3.984-7.311 8-9Zm25 27c8.312-.189 11.812 3.811 10.5 12-2.541 4.569-6.375 6.069-11.5 4.5-4.361-2.226-5.861-5.726-4.5-10.5 1.36-2.523 3.193-4.523 5.5-6Z" opacity=".983"/></g></svg>