<svg xmlns="http://www.w3.org/2000/svg" width="774" height="692"><g fill="#6D2DF6" fill-rule="evenodd"><path d="M272.871.258c17.846-1.657 32.012 4.676 42.5 19a153.341 153.341 0 0 1 10 26l24 76c8.89 19.298 20.39 36.798 34.5 52.5a20.64 20.64 0 0 0 6 2c21.667.667 43.333.667 65 0 6.136-1.13 10.97-4.295 14.5-9.5a17664.672 17664.672 0 0 1 110-141c17.26-20.018 37.427-23.518 60.5-10.5 13.47 11.072 18.637 25.239 15.5 42.5a48.727 48.727 0 0 1-6 15 15026.243 15026.243 0 0 1-127 164c-7.469 10.275-12.803 21.608-16 34a2161.38 2161.38 0 0 1-15 81c-.946 6.17.388 11.838 4 17a3216.812 3216.812 0 0 0 53 80c8.79 15.327 12.957 31.827 12.5 49.5a12973.495 12973.495 0 0 1-14.5 152.5c-6.29 24.955-22.29 38.289-48 40-29.735-2.901-45.9-19.235-48.5-49a9601.56 9601.56 0 0 0 17.5-137 32.473 32.473 0 0 0-4-10 1915.966 1915.966 0 0 1-42-61c-3.706-4.768-7.706-5.101-12-1l-.5 5 25.5 196c3.09 20.418-3.41 36.918-19.5 49.5-13.269 8.459-27.603 10.793-43 7-16.004-4.671-26.837-14.837-32.5-30.5a11353.85 11353.85 0 0 1-27-241c-2.353-23.2.981-45.533 10-67a841.696 841.696 0 0 1 27-48c5.343-7.687 7.01-16.021 5-25a860.76 860.76 0 0 0-41-57 1820.865 1820.865 0 0 1-33-47 183.264 183.264 0 0 1-12-28 6958.97 6958.97 0 0 1-30-89c-6.344-30 5.156-49 34.5-57Zm2 25c8.074-1.03 14.574 1.636 19.5 8a1531.647 1531.647 0 0 1 29 90c8.962 20.602 19.962 39.935 33 58 8.846 10.506 20.012 17.006 33.5 19.5a958.98 958.98 0 0 1 61.5.5c14.106-.14 25.773-5.474 35-16a13314.27 13314.27 0 0 1 117.5-149.5c7.187-5.464 14.52-5.464 22 0 7.8 8.283 7.967 16.783.5 25.5l-133 172c-7.448 14.454-12.115 29.787-14 46a3317.46 3317.46 0 0 1-13 71c-1.162 9.522.504 18.522 5 27a4173.621 4173.621 0 0 1 59 92c5.1 13.57 6.765 27.57 5 42a6938.689 6938.689 0 0 0-13 132c-5.742 20.249-18.242 26.083-37.5 17.5-4.428-3.092-7.26-7.26-8.5-12.5-.667-6-.667-12 0-18 5.24-39.68 10.573-79.346 16-119 .876-6.821.21-13.488-2-20a3013.368 3013.368 0 0 0-52-77c-14.136-12.37-28.97-13.202-44.5-2.5-6.94 6.648-10.274 14.815-10 24.5a21935.604 21935.604 0 0 0 27 206.5c-5.17 20.919-17.838 27.585-38 20-4.458-2.74-7.625-6.573-9.5-11.5a11058.143 11058.143 0 0 1-27.5-250.5 117.289 117.289 0 0 1 6.5-32.5 3055.443 3055.443 0 0 1 35-65c5.43-15.76 3.764-30.76-5-45l-62-84a135.68 135.68 0 0 1-14-24 2232.4 2232.4 0 0 1-35.5-107c.882-9.16 5.55-15.16 14-18Z" opacity=".963"/><path d="M414.871 30.258c29.43-3.202 51.596 7.798 66.5 33 13.534 33.709 5.701 61.209-23.5 82.5-29.6 14.809-56.1 10.643-79.5-12.5-15.858-21.207-18.858-44.207-9-69 10.048-18.265 25.215-29.6 45.5-34Zm7 24c-22.64 5.242-33.808 19.575-33.5 43 6.008 22.924 20.841 33.424 44.5 31.5 14.223-3.223 23.723-11.723 28.5-25.5 4.064-30.111-9.103-46.445-39.5-49Z" opacity=".963"/><path d="M215.871 196.258c8.415-1.196 15.25 1.47 20.5 8a2707.869 2707.869 0 0 1 43 109c3.076 26.016-7.424 44.183-31.5 54.5-23.175 7.33-38.34-.502-45.5-23.5-.568-18.03 6.266-32.53 20.5-43.5a299.344 299.344 0 0 1 21-10 494.64 494.64 0 0 0-12-28.5 1602.892 1602.892 0 0 0-69 29.5 647.735 647.735 0 0 0 20.5 53.5c3.74 22.123-3.76 39.29-22.5 51.5-14.773 8.56-29.44 8.56-44 0-13.215-14.808-14.382-30.641-3.5-47.5 7.92-13.043 19.42-20.71 34.5-23a3201.821 3201.821 0 0 0-26.5-73c-2.312-10.536 1.188-18.37 10.5-23.5a4467.515 4467.515 0 0 1 84-33.5Zm-1 27c1.624-.14 2.79.527 3.5 2l4 10c.781 1.444.614 2.777-.5 4l-68 28a7821.66 7821.66 0 0 1-7-16 67912.926 67912.926 0 0 1 68-28Zm30 94c7.772-1.72 11.272 1.28 10.5 9-3.384 10.609-10.55 16.943-21.5 19-4.44.058-6.774-2.108-7-6.5 2.207-10.371 8.207-17.538 18-21.5Zm-95 33c5.891-1.07 9.224 1.263 10 7-3.318 13.835-11.985 20.669-26 20.5-1.466-1.552-2.466-3.386-3-5.5 2.82-10.478 9.153-17.812 19-22Z" opacity=".965"/><path d="M574.871 224.258c32.975-1.424 59.808 10.576 80.5 36a101.003 101.003 0 0 1 13 27c1.772 9.479-2.062 14.812-11.5 16-2.933.034-5.6-.8-8-2.5a340.369 340.369 0 0 0-14.5-26.5c-10.087-12.087-22.753-20.087-38-24-.325 2.053.01 4.053 1 6l36 90c13.178 19.63 11.845 38.297-4 56-15.32 16.359-33.154 19.859-53.5 10.5-10.87-9.977-14.37-22.144-10.5-36.5 3.09-11.025 9.257-19.86 18.5-26.5a288.743 288.743 0 0 1 20-10.5 2254.541 2254.541 0 0 1-40-103c.937-6.6 4.603-10.6 11-12Zm32 141c10.923.51 13.423 5.51 7.5 15-5.513 9.176-13.347 13.01-23.5 11.5-1.348-1.574-2.014-3.407-2-5.5 2.443-10.106 8.443-17.106 18-21Z" opacity=".961"/></g></svg>