<svg xmlns="http://www.w3.org/2000/svg" width="649.062" height="609.032"><g fill="#6D2DF6" fill-rule="evenodd"><path d="M467.062.007c52.338-.466 87.172 23.867 104.5 73 10.684 48.643-4.483 86.81-45.5 114.5-34.839 18.27-69.505 17.937-104-1-40.093-28.26-54.593-66.427-43.5-114.5 11.1-33.433 33.266-55.933 66.5-67.5 7.382-1.976 14.716-3.476 22-4.5Zm-2 39c42.83-1.168 66.83 19.498 72 62-2.629 31.794-19.296 51.96-50 60.5-31.176 4.163-54.01-7.671-68.5-35.5-11.322-32.361-3.156-58.528 24.5-78.5 7.107-3.752 14.44-6.585 22-8.5Z" opacity=".976"/><path d="M134.062 6.007c52.727 1.715 99.061 19.548 139 53.5a35166.486 35166.486 0 0 1 223.5 222.5c6.033 7.679 7.033 16.013 3 25-23.538 22.526-51.37 31.36-83.5 26.5a146.306 146.306 0 0 1-13-4 364.18 364.18 0 0 0-46-22c-25.466-7.776-50.466-6.443-75 4a865.298 865.298 0 0 1-35 18c-19.544 6.942-39.21 7.275-59 1a832.51 832.51 0 0 1-44-23c-10.38-9.115-11.547-19.282-3.5-30.5l91.5-91.5a441.17 441.17 0 0 0-54-46 108.434 108.434 0 0 0-26-10 1836.233 1836.233 0 0 0-42-7c-21.985-9.336-32.65-26.003-32-50 1.257-37.096 19.924-59.263 56-66.5Zm1 39c40.114 1.4 75.78 14.568 107 39.5l13 11 197 197c-9.295 4.58-18.962 5.58-29 3a452.8 452.8 0 0 1-36-18c-40.537-17.618-81.204-17.952-122-1a365.756 365.756 0 0 0-32 17c-16.552 6.033-31.886 3.7-46-7l87.5-87.5c6.074-7.94 6.741-16.273 2-25a2370.356 2370.356 0 0 0-60.5-55.5c-14.495-11.735-30.829-20.068-49-25a353.384 353.384 0 0 0-45-8 17.842 17.842 0 0 1-4.5-5.5c-3.632-16.737 2.201-28.404 17.5-35Z" opacity=".973"/><path d="M97.062 364.007c23.405-1.433 45.738 2.734 67 12.5 10.02 5.367 20.02 10.7 30 16 15.014 5.96 30.014 5.96 45 0 7.257-3.6 14.257-7.6 21-12 36.962-19.148 74.962-21.481 114-7a262.35 262.35 0 0 1 33 18c15.845 6.936 31.845 7.269 48 1a583.92 583.92 0 0 1 36-19c29.96-11.476 60.293-12.476 91-3a338.673 338.673 0 0 1 44 22c7.384 2.966 15.051 4.133 23 3.5v66c-17.704.626-34.704-2.541-51-9.5l-34-18c-13.454-5.086-27.12-5.752-41-2a413.78 413.78 0 0 0-34 18c-38.136 16.845-76.136 16.512-114-1-11.616-8.14-24.282-14.14-38-18-12.679-2.142-25.013-.81-37 4l-34 18c-32.625 12.619-65.29 12.619-98 0a965.165 965.165 0 0 1-37-19c-14.213-5.534-28.547-5.868-43-1a322.98 322.98 0 0 0-30 16c-18.303 8.894-37.636 13.394-58 13.5-.166-22.336 0-44.67.5-67 7.725.964 15.224-.203 22.5-3.5l35-19c12.79-4.615 25.79-7.781 39-9.5Z" opacity=".986"/><path d="M99.062 510.007c22.688-1.03 44.355 3.138 65 12.5a443.508 443.508 0 0 0 32 17c13.672 4.666 27.338 4.666 41 0a395.237 395.237 0 0 1 41-21c34.221-12.323 67.888-10.99 101 4l29 15c15.882 6.838 31.882 7.17 48 1l32-17c32.598-14.104 65.598-15.104 99-3a357.96 357.96 0 0 1 39 20 72.31 72.31 0 0 0 23 4.5v66c-17.81.365-34.81-3.135-51-10.5a967.813 967.813 0 0 0-37-19c-21.924-6.748-41.924-3.082-60 11-37.608 21.084-76.608 24.084-117 9a13512.92 13512.92 0 0 0-37-19c-13.889-5.476-27.889-5.81-42-1a366.965 366.965 0 0 0-32 17c-33.767 15.097-68.1 16.43-103 4l-42-21c-13.333-4.667-26.667-4.667-40 0a110901.88 110901.88 0 0 1-32 17c-17.742 8.269-36.409 12.435-56 12.5v-66c7.2.06 14.2-1.106 21-3.5a496.946 496.946 0 0 0 33-18c14.61-5.902 29.61-9.735 45-11.5Z" opacity=".985"/></g></svg>