<svg xmlns="http://www.w3.org/2000/svg" width="582.295" height="583.289"><path fill="#6D2DF6" fill-rule="evenodd" d="M271.541.241c99.887-3.568 182.054 32.432 246.5 108 61.541 80.881 78.875 170.547 52 269-28.206 86.541-84.039 148.041-167.5 184.5-96.959 36.367-188.959 26.7-276-29-85.886-62.607-128.053-147.44-126.5-254.5 7.831-104.384 55.997-183.884 144.5-238.5 39.627-22.155 81.96-35.322 127-39.5Zm8 40c41.144-1.405 80.311 6.595 117.5 24 12.821 77.397 9.488 154.063-10 230a3.647 3.647 0 0 1-1.5 1c-25.166-8.472-43-24.806-53.5-49a983.496 983.496 0 0 1-25-104c-6.835-35.51-19.002-69.01-36.5-100.5 3.195-.18 6.195-.68 9-1.5Zm-54 9c1.322-.17 2.49.163 3.5 1 17.807 28.74 30.14 59.74 37 93a5277.386 5277.386 0 0 0 19 89c11.165 50.05 40.665 84.05 88.5 102a565.233 565.233 0 0 1-13 29c-106.178-54.156-195.844-128.489-269-223 34.455-45.238 79.122-75.57 134-91Zm216 42c34.773 26.282 61.273 59.282 79.5 99 2.765 40.972-13.735 71.472-49.5 91.5a188.113 188.113 0 0 1-43.5 15.5c15.808-67.82 20.308-136.488 13.5-206Zm-374 85c51.22 62.396 109.553 116.896 175 163.5 30.843 21.598 63.177 40.932 97 58 .951.718 1.117 1.551.5 2.5l-8 12c-1.388 1.054-2.888 1.22-4.5.5a246.958 246.958 0 0 0-61-18 2956.892 2956.892 0 0 0-92-10c-48.432-5.562-91.766-23.229-130-53-1.62-2.166-2.455-4.666-2.5-7.5-4.484-34.886-1.818-69.219 8-103a523.058 523.058 0 0 1 17.5-45Zm473 95c5.2 51.824-5.3 100.49-31.5 146a660.125 660.125 0 0 1-111.5-37 3125.492 3125.492 0 0 0 17-40.5c37.84-3.934 71.84-17.267 102-40 9.738-8.22 17.738-17.72 24-28.5Zm-480 119c30.223 16.908 62.557 27.741 97 32.5a7153.139 7153.139 0 0 1 106 12c13.868 2.402 27.201 6.402 40 12-30.277 32.473-65.277 58.64-105 78.5-64.476-26.143-110.476-71.143-138-135Zm317 26a809.128 809.128 0 0 0 107 36.5c-20.533 23.211-44.033 42.711-70.5 58.5-.408-19.898-6.74-37.564-19-53-8.606-9.612-18.106-18.112-28.5-25.5a414.28 414.28 0 0 1 11-16.5Zm-37 49c14.037 7.54 24.537 18.54 31.5 33 3.008 12.14.842 23.306-6.5 33.5-36.463 11.75-73.463 14.416-111 8 28.834-18.035 55.001-39.535 78.5-64.5a102.015 102.015 0 0 0 7.5-10Z" opacity=".978"/></svg>