<svg xmlns="http://www.w3.org/2000/svg" width="883" height="642"><g fill="#6D2DF6" fill-rule="evenodd"><path d="M426.416.381c51.798-3.53 89.63 17.47 113.5 63 17.035 43.64 10.535 83.306-19.5 119 53.059 15.223 91.226 47.889 114.5 98 11.343 27.396 15.01 55.73 11 85-8.902 28.572-28.07 45.405-57.5 50.5-9.327.5-18.661.666-28 .5-.166 7.341 0 14.674.5 22a54.628 54.628 0 0 0 2 7 1448.134 1448.134 0 0 0 19.5 30.5 1187.941 1187.941 0 0 0 43-7c42.486-3.017 72.986 14.483 91.5 52.5 14.037 41.699 4.203 76.532-29.5 104.5-11.193 7.733-23.526 12.733-37 15-69.648 1.15-139.314 1.65-209 1.5l-199-.5c-33.407-2.608-58.24-18.441-74.5-47.5-15.473-35.877-10.806-68.877 14-99 20.875-20.738 46.042-29.571 75.5-26.5a600.248 600.248 0 0 0 43 7 569.07 569.07 0 0 0 20.5-33.5c.5-8.66.666-17.327.5-26-31.32 4.741-56.487-5.259-75.5-30-11.736-20.657-15.07-42.657-10-66 14.76-70.595 56.594-116.595 125.5-138-32.088-39.548-36.921-82.214-14.5-128 18.322-30.075 44.822-48.075 79.5-54Zm9 38c40.489.663 65.322 20.663 74.5 60 2.614 34.951-11.886 59.785-43.5 74.5-36.923 11.251-65.757.751-86.5-31.5-14.985-32.783-9.485-61.616 16.5-86.5 11.626-8.925 24.626-14.425 39-16.5Zm-43 178a1996.63 1996.63 0 0 1 106 1.5c48.868 9.337 83.034 36.837 102.5 82.5 7.3 18.097 9.634 36.763 7 56-4.347 12.679-13.181 19.846-26.5 21.5a1121.94 1121.94 0 0 1-67 0c-14.318-1.217-27.985-4.884-41-11l-22-11c-7-3.333-14-3.333-21 0-16.608 11.317-34.941 18.317-55 21a743.375 743.375 0 0 1-74 1c-19.218-3.067-28.885-14.4-29-34 3.36-47.076 24.694-83.409 64-109 17.478-10.193 36.144-16.359 56-18.5Zm46 180a18.453 18.453 0 0 1 6 .5c24.385 12.763 50.385 19.263 78 19.5a210.855 210.855 0 0 1-1 27.5 61.547 61.547 0 0 0 3.5 14.5 359.195 359.195 0 0 1 16.5 26.5 2090.08 2090.08 0 0 1-99 19.5 2113.613 2113.613 0 0 1-102-19.5 153.399 153.399 0 0 0 17.5-30.5 150.671 150.671 0 0 0 2.5-36c27.453-2.692 53.453-10.026 78-22Zm197 110c34.018 3.849 50.184 22.849 48.5 57-5.385 22.052-19.22 35.219-41.5 39.5-92 .667-184 .667-276 0-15.617-4.735-21.117-14.902-16.5-30.5 2.562-5.561 6.728-9.394 12.5-11.5a21952.227 21952.227 0 0 1 273-54.5Zm-398 1c7.72-.262 15.387.238 23 1.5a3122.61 3122.61 0 0 1 84 17c-13.94 7.939-24.44 19.105-31.5 33.5-3.872 14.569-4.038 29.236-.5 44-26.038.444-52.038-.056-78-1.5-30.363-11.56-41.53-33.06-33.5-64.5 7.236-16.075 19.402-26.075 36.5-30Z" opacity=".977"/><path d="M436.416 240.381c5.733-.605 11.066.562 16 3.5a581.971 581.971 0 0 1 31.5 40.5c5.028 4.598 10.86 7.765 17.5 9.5a568.295 568.295 0 0 1 63 12c12.422 12.124 11.756 23.458-2 34a27.86 27.86 0 0 1-9 1.5 1033.803 1033.803 0 0 1-68-11.5 92.143 92.143 0 0 1-25-14 163.463 163.463 0 0 1-19.5-23.5c-12.708 22.041-31.542 35.541-56.5 40.5a1132.984 1132.984 0 0 0-50 8c-20.034 1.298-27.867-7.869-23.5-27.5 3.916-5.903 9.416-9.403 16.5-10.5l54-9c7.453-1.791 13.62-5.624 18.5-11.5a1049.536 1049.536 0 0 1 26-35c3.154-3.012 6.654-5.345 10.5-7Z" opacity=".973"/></g></svg>