<svg xmlns="http://www.w3.org/2000/svg" width="780.057" height="312.604"><path fill="#6D2DF6" fill-rule="evenodd" d="M153 .558c35.412-3.543 62.246 9.79 80.5 40 16.859-14.426 36.359-19.926 58.5-16.5 43.004 5.239 75.504 26.406 97.5 63.5 32.936-51.886 79.436-71.386 139.5-58.5a110.707 110.707 0 0 1 17 10.5C569.291 4.4 601.291-7.1 642 5.058c11.657 5.076 21.824 12.243 30.5 21.5a984.761 984.761 0 0 1 29.5 42.5l75 1 1.5 1.5a4538.365 4538.365 0 0 1 1 190 6.978 6.978 0 0 1-2.5 3.5l-79 1c-52.039 32.012-108.706 47.512-170 46.5a722.892 722.892 0 0 1-48-2.5c-40.06-6.76-70.226-27.592-90.5-62.5-18.085 31.136-44.585 51.303-79.5 60.5-50.47 7.64-100.47 5.307-150-7-27.955-8.147-54.288-19.814-79-35l-78-1a9.457 9.457 0 0 1-2.5-1.5c-.667-64-.667-128 0-192a9.457 9.457 0 0 1 2.5-1.5l74-1a649.45 649.45 0 0 1 35-48c11.843-10.588 25.51-17.422 41-20.5Zm7 32c25.044-.413 41.211 11.254 48.5 35a408.526 408.526 0 0 1 1 55c-1.85 10.349-8.017 16.016-18.5 17-8.822-.326-14.656-4.66-17.5-13a840.655 840.655 0 0 1-2-55 9.454 9.454 0 0 0-2.5-1.5 169.166 169.166 0 0 0-26 0 9.454 9.454 0 0 0-2.5 1.5c-.667 19-.667 38 0 57 4.68 25.516 19.847 39.849 45.5 43-.492 44.896 20.174 75.063 62 90.5a110.105 110.105 0 0 0 36 3c1.833-.5 3-1.667 3.5-3.5.805-9.048.639-18.048-.5-27a4.457 4.457 0 0 0-2-1.5c-23.247 2.264-42.08-5.57-56.5-23.5-9.176-14.718-11.51-30.384-7-47 9.472-6.803 15.805-15.803 19-27a627.613 627.613 0 0 0 2-47c3.709-19.041 15.209-29.875 34.5-32.5 39.963 1.054 69.13 19.22 87.5 54.5a140.694 140.694 0 0 1 7 22c3.695 26.473 3.029 52.806-2 79-12.603 37.605-38.437 59.77-77.5 66.5a492.964 492.964 0 0 1-74 0c-41.356-3.397-79.69-15.897-115-37.5a3750.4 3750.4 0 0 1-.5-150l29-42c7.9-8.362 17.4-13.696 28.5-16Zm449 0c16.626-.935 30.126 5.065 40.5 18l27 40a3750.4 3750.4 0 0 1-.5 150c-41.74 25.299-87.073 38.133-136 38.5a316.412 316.412 0 0 1-61.5-2.5c-35.069-9.402-58.069-31.402-69-66a118.037 118.037 0 0 1-3-19 461.92 461.92 0 0 1 1-57c8.058-37.051 29.891-61.885 65.5-74.5a157.13 157.13 0 0 1 25.5-4.5c20.171 1.174 32.838 11.507 38 31a695.206 695.206 0 0 0 2 48c2.634 11.6 8.967 20.6 19 27 6.82 25.536-.346 46.37-21.5 62.5-13.068 7.214-27.068 10.214-42 9l-1.5 1.5a210.395 210.395 0 0 0 0 29c43.424 5.288 74.758-11.712 94-51 5.1-13.197 7.266-26.864 6.5-41 24.787-2.952 39.954-16.62 45.5-41a870.065 870.065 0 0 0 0-59 9.454 9.454 0 0 0-2.5-1.5 169.166 169.166 0 0 0-26 0 9.454 9.454 0 0 0-2.5 1.5l-1 52c-3.86 13.013-12.36 17.846-25.5 14.5-5.489-2.468-8.989-6.635-10.5-12.5a783.858 783.858 0 0 1 0-56c5.229-20.398 18.062-32.731 38.5-37Zm-577 70h37v40c-12.32-3.954-24.652-3.954-37 0v-40Zm678 0h37v40c-12.319-3.954-24.652-3.954-37 0v-40Zm-664 70c9.75-1.21 16.917 2.458 21.5 11a418.85 418.85 0 0 1 1.5 49H32c-.167-14.67 0-29.337.5-44 1.85-7.674 6.35-13.008 13.5-16Zm678 0c9.75-1.21 16.917 2.458 21.5 11a419.024 419.024 0 0 1 1.5 49h-37c-.167-15.004 0-30.004.5-45 1.78-7.632 6.28-12.632 13.5-15Z" opacity=".973"/></svg>