<svg xmlns="http://www.w3.org/2000/svg" width="707" height="371.078"><path fill="#6D2DF6" fill-rule="evenodd" d="M162 .063c18.67-.167 37.336 0 56 .5 21.637 4.306 33.47 17.473 35.5 39.5.5 30.665.667 61.332.5 92h188c-.167-32.002 0-64.002.5-96 3.295-20.961 15.461-32.795 36.5-35.5a756.122 756.122 0 0 1 55 0c13.964 2.308 24.297 9.642 31 22l44 1c17.688 3.354 28.521 13.854 32.5 31.5a1059.34 1059.34 0 0 1 1.5 77c15.337-.167 30.67 0 46 .5 9.598.932 15.431 6.098 17.5 15.5.667 25 .667 50 0 75-1.055 8.72-5.889 13.888-14.5 15.5-16.33.5-32.663.667-49 .5a428.172 428.172 0 0 0 0 56c.753 12.239-1.414 23.906-6.5 35-8.251 12.044-19.751 18.21-34.5 18.5-12.338.158-24.671.158-37 0-5.938 12.274-15.604 19.607-29 22a930.035 930.035 0 0 1-61 0c-17.947-4.28-28.78-15.447-32.5-33.5-.5-32.332-.667-64.665-.5-97H254c.167 30.002 0 60.002-.5 90-.701 22.269-11.868 35.769-33.5 40.5l-30 .5a334.224 334.224 0 0 1-35-1.5c-10.579-3.741-18.579-10.574-24-20.5a386.885 386.885 0 0 1-47-1.5c-17.959-5.057-28.126-16.891-30.5-35.5-.5-24.331-.667-48.664-.5-73-12.338.167-24.671 0-37-.5-6.854-1.516-12.02-5.35-15.5-11.5a1681.166 1681.166 0 0 1 0-82c3.77-6.976 9.603-11.142 17.5-12.5 11.69.285 23.356.118 35-.5-.167-24.002 0-48.002.5-72 1.837-18.502 11.67-30.335 29.5-35.5a1499.067 1499.067 0 0 1 48-2.5c7.05-12.063 17.383-19.396 31-22Zm3 37c16.67-.167 33.337 0 50 .5a9.454 9.454 0 0 1 1.5 2.5c.667 97.333.667 194.667 0 292-.772 1.349-1.939 2.182-3.5 2.5a528.986 528.986 0 0 1-46 0c-2.223-.652-3.39-2.152-3.5-4.5-.667-96.333-.667-192.667 0-289 .41-1.401.91-2.734 1.5-4Zm316 0c16.337-.167 32.67 0 49 .5l1.5 1.5c.667 98 .667 196 0 294a9.454 9.454 0 0 1-2.5 1.5 552.224 552.224 0 0 1-47 0c-2.493-1.325-3.66-3.491-3.5-6.5-.667-95-.667-190 0-285 .236-2.311 1.069-4.311 2.5-6Zm-372 22a240.173 240.173 0 0 0 16 1.5 9.454 9.454 0 0 1 1.5 2.5 14999 14999 0 0 1 0 245c-.318 1.56-1.151 2.728-2.5 3.5a256.122 256.122 0 0 1-32 0l-1.5-1.5c-.667-83-.667-166 0-249 6.266-.65 12.433-1.315 18.5-2Zm461 1c11.338-.167 22.672 0 34 .5l1.5 1.5c.667 82.333.667 164.667 0 247-.5 1.167-1.333 2-2.5 2.5a240.38 240.38 0 0 1-31 0c-1.167-.5-2-1.333-2.5-2.5-.828-83.04-.661-166.04.5-249Zm-532 109h15v33H38v-33Zm605 0h27v33h-27v-33Zm-389 1h187v32H254v-32Z" opacity=".979"/></svg>