<svg xmlns="http://www.w3.org/2000/svg" width="873" height="713"><path fill="#6D2DF6" fill-rule="evenodd" d="M435.882 0c57.424 3.924 90.924 34.258 100.5 91 2.2 31.072-7.3 57.905-28.5 80.5 45.588 5.946 77.755 29.779 96.5 71.5a10068.92 10068.92 0 0 1 42 105c8.987 26.765 3.153 49.598-17.5 68.5-19.559 13.183-40.226 15.016-62 5.5l-1 1.5a3683.04 3683.04 0 0 1 28 104.5c-.67 7.501-4.67 12.001-12 13.5-14.996.5-29.996.667-45 .5.167 40.335 0 80.668-.5 121-3.899 24.904-18.065 40.738-42.5 47.5-22.009 5.166-41.009-.334-57-16.5-20.902 20.864-44.569 24.697-71 11.5-16.375-9.897-25.875-24.397-28.5-43.5-.5-39.999-.667-79.999-.5-120-15.004.167-30.004 0-45-.5-7.564-1.567-11.564-6.234-12-14a3621.467 3621.467 0 0 1 28-103.5l-1-2c-35.818 13.786-62.652 3.786-80.5-30-5.099-15.563-4.432-30.896 2-46a3440.634 3440.634 0 0 1 43-106c18.495-40.521 49.995-63.354 94.5-68.5-32.103-36.393-37.603-76.559-16.5-120.5 19.761-32.3 48.595-49.3 86.5-51Zm-8 30c35.082-1.718 59.916 13.282 74.5 45 12.046 43.405-2.454 74.238-43.5 92.5-34.051 8.984-61.218-.849-81.5-29.5-18.203-34.276-13.369-64.776 14.5-91.5 10.707-8.523 22.707-14.023 36-16.5Zm-38 170c31.335-.167 62.668 0 94 .5 36.439-3.356 64.939 9.811 85.5 39.5a1798.659 1798.659 0 0 1 51 125c1.828 19.846-7.172 31.179-27 34-9.796-.727-17.463-5.061-23-13a9836.667 9836.667 0 0 1-50-123c-4.578-5.555-10.412-7.388-17.5-5.5-6.27 2.535-9.27 7.202-9 14a55.555 55.555 0 0 0 2.5 13.5 19096.586 19096.586 0 0 1 62.5 227h-244a29411.693 29411.693 0 0 1 63.5-230 39.081 39.081 0 0 0 1-16c-5.282-9.33-12.782-11.496-22.5-6.5a18.778 18.778 0 0 0-4.5 5.5l-47 118c-10.511 16.42-24.344 19.92-41.5 10.5-8.617-7.18-12.117-16.347-10.5-27.5a1620.996 1620.996 0 0 1 51-126c12.897-20.041 31.064-32.541 54.5-37.5a1265.983 1265.983 0 0 1 31-2.5Zm-23 342h55a6958.7 6958.7 0 0 1-.5 118c-5.367 18.603-17.534 25.77-36.5 21.5-8.927-3.26-14.761-9.427-17.5-18.5-.5-40.332-.667-80.665-.5-121Zm85 0h55a1523.861 1523.861 0 0 1-.5 121c-6.038 15.108-17.204 21.608-33.5 19.5-10.605-3.604-17.438-10.771-20.5-21.5a7077.14 7077.14 0 0 1-.5-119Z" opacity=".971"/></svg>