<svg xmlns="http://www.w3.org/2000/svg" width="696.63" height="645.257"><path fill="#6D2DF6" fill-rule="evenodd" d="M260.728.257c10.952-1.112 20.952 1.388 30 7.5 11.346 8.674 20.513 19.174 27.5 31.5a304.106 304.106 0 0 0 7 21 128.578 128.578 0 0 1 13 14c6.1-4.093 12.6-4.926 19.5-2.5a1274.744 1274.744 0 0 1 43 42c2.67 1.922 5.67 3.088 9 3.5 19.834-6 39.5-12.5 59-19.5 27.415-8.242 51.582-2.742 72.5 16.5 9.085-26.025 25.919-45.192 50.5-57.5 35.802-13.313 65.969-5.48 90.5 23.5 20.455 32.562 19.122 64.229-4 95-12.566 14.702-28.066 25.035-46.5 31 15.366 31.589 12.866 61.589-7.5 90a2172.517 2172.517 0 0 1-96.5 95.5c-24.477 12.069-44.644 6.902-60.5-15.5a17539.186 17539.186 0 0 0-40.5 181c41.857 8.049 62.69 33.383 62.5 76-1.053 6.053-4.553 9.887-10.5 11.5-42 .667-84 .667-126 0-17.285-3.954-26.785-14.788-28.5-32.5l-1-241-2-4-69-69c-4.648-7.214-4.481-14.381.5-21.5a1732.238 1732.238 0 0 0-57-40c-8.476-7.757-9.143-16.09-2-25 4.732-2.401 9.732-3.068 15-2 24.372 16.18 48.706 32.347 73 48.5a2292.358 2292.358 0 0 0 54-33.5 16145.946 16145.946 0 0 0-211-116.5c-8 7.333-15.667 15-23 23a1056.421 1056.421 0 0 0 36 26.5c7.572 7.716 7.906 15.716 1 24-4.732 2.4-9.732 3.068-15 2a423.494 423.494 0 0 1-67-49l-40-26c-19.435-18.441-21.935-38.941-7.5-61.5 16.156-16.292 34.656-19.46 55.5-9.5a1412.124 1412.124 0 0 0 75 45l137 74.5 1-1c-5.465-7.397-5.132-14.563 1-21.5a169.323 169.323 0 0 0-16-15c-10.711-.47-20.377-3.802-29-10-7.833-6.5-15-13.667-21.5-21.5-7.061-10.65-9.394-22.317-7-35a38.577 38.577 0 0 1 6-13 289.068 289.068 0 0 1 35.5-34.5c4.517-2.555 9.184-4.388 14-5.5Zm3 30c3.719-.498 7.053.336 10 2.5l16.5 16.5a23.597 23.597 0 0 1 2.5 6 28.51 28.51 0 0 1-4.5 9l-21.5 21.5c-5.59 3.534-10.922 3.2-16-1l-12.5-12.5a28.51 28.51 0 0 1-4.5-9 23.597 23.597 0 0 1 2.5-6 210.24 210.24 0 0 1 27.5-27Zm-226 32c5.447-.674 10.447.492 15 3.5a1304.29 1304.29 0 0 1 41 26l-18.5 18.5a1378.76 1378.76 0 0 1-42-27c-5.572-8.49-4.072-15.49 4.5-21Zm578 18c24.692-1.122 41.192 9.878 49.5 33 3.682 13.798 1.348 26.464-7 38-6.965 9.302-15.465 16.802-25.5 22.5-31.487 9.34-52.321-1.492-62.5-32.5-2.47-12.906.197-24.573 8-35 9.45-13.318 21.95-21.985 37.5-26Zm-307 8c3.063 1.55 5.729 3.718 8 6.5a445.01 445.01 0 0 1-18 17.5 64.292 64.292 0 0 1-7-6.5 418.271 418.271 0 0 0 17-17.5Zm41 19a428.639 428.639 0 0 1 31 29.5c11.259 8.976 23.925 11.976 38 9l62-20c19.85-4.67 35.183 1.498 46 18.5a15117.555 15117.555 0 0 1-67.5 150l-72.5-74.5a2603.53 2603.53 0 0 1 49-11c10.226-3.288 14.059-10.121 11.5-20.5-4.151-7.84-10.651-10.673-19.5-8.5a3753.218 3753.218 0 0 0-53 12 53.252 53.252 0 0 1-17 2l-46.5-46.5c-.667-.667-.667-1.333 0-2a690.4 690.4 0 0 0 38.5-38Zm198 63a178.566 178.566 0 0 1 18 20.5 183.475 183.475 0 0 1-29 5 854.02 854.02 0 0 0 11-25.5Zm48 45c3.47-.625 6.304.375 8.5 3 11.698 22.602 9.365 43.602-7 63a1304.942 1304.942 0 0 0-42.5 43.5c-.667.667-1.333.667-2 0a296.34 296.34 0 0 1-20-21 282.27 282.27 0 0 1 20.5-19.5c7.303-10.578 5.47-19.078-5.5-25.5-6.035-1.405-11.368-.072-16 4l-22 22c-4.53 2.637-9.196 2.97-14 1a3765.045 3765.045 0 0 0 24.5-52.5l3.5-3.5a2746.115 2746.115 0 0 0 72-14.5Zm-233 28a3114.002 3114.002 0 0 1 81 81.5 1562.085 1562.085 0 0 1-20.5 31.5 723.157 723.157 0 0 0-31.5-32.5c-12.841-6.908-21.175-3.408-25 10.5a29.005 29.005 0 0 0 3.5 10 1957.512 1957.512 0 0 0 37.5 37 148.44 148.44 0 0 1-11 17 16445.763 16445.763 0 0 1-107-108.5 4661.684 4661.684 0 0 1 73-46.5Zm131 73c4.044-.542 7.71.29 11 2.5l19.5 19.5c3.953 4.452 4.286 9.119 1 14a180.42 180.42 0 0 1-16.5 15.5c-4.541 1.114-8.541.114-12-3l-18.5-18.5c-4.034-4.423-4.367-9.09-1-14a369.115 369.115 0 0 1 16.5-16Zm-65 91a11891.783 11891.783 0 0 1-32.5 149 457.546 457.546 0 0 1-42.5 1c-.167-52.668 0-105.334.5-158l35.5 35.5c8.512 5.498 16.012 4.33 22.5-3.5a153.218 153.218 0 0 1 16.5-24Zm4 181.5c12.77 4.436 21.104 13.103 25 26a632.353 632.353 0 0 1-49.5 1.5 700.313 700.313 0 0 1-51.5-1.5 6.978 6.978 0 0 1-2.5-3.5c-.5-7.993-.666-15.993-.5-24 26.37-.445 52.704.055 79 1.5Zm-93-306.5c16.258.079 21.758 7.746 16.5 23-9.9 9.86-18.566 8.86-26-3a30.485 30.485 0 0 1 0-11c2.406-3.908 5.572-6.908 9.5-9Zm-254-83.5 108 76c8.42 6.246 10.254 14.08 5.5 23.5-6.441 6.73-13.608 7.565-21.5 2.5l-108-76c-10.807-10-10.474-19.5 1-28.5 5.242-.477 10.242.356 15 2.5Zm94.5 5.5c-5.395 6.94-12.23 8.774-20.5 5.5-7.364-5.946-8.864-13.112-4.5-21.5 2.134-2.653 4.634-4.653 7.5-6 15.58-.527 21.413 6.806 17.5 22Z" opacity=".972"/></svg>