<svg xmlns="http://www.w3.org/2000/svg" width="726.025" height="726.205"><g fill="#6D2DF6" fill-rule="evenodd"><path d="M340.024.204c50.65-2.607 84.816 19.726 102.5 67 30.667 32 62 63.333 94 94 21.838 26.874 26.505 56.54 14 89-9.642 19.638-23.975 34.638-43 45l-1 50c-1.375 27.941-13.875 49.108-37.5 63.5a621.23 621.23 0 0 0-35.5 20.5 199.14 199.14 0 0 0-1 39c.398 2.732 1.898 4.565 4.5 5.5a6453.123 6453.123 0 0 1 101 37c52.641 24.73 81.474 66.23 86.5 124.5.5 17.664.667 35.33.5 53 14.337-.167 28.671 0 43 .5 12.806 2.79 18.64 10.622 17.5 23.5-3.63 7.962-9.797 12.462-18.5 13.5-202.333.667-404.667.667-607 0-15.09-1.417-21.59-9.584-19.5-24.5 3.423-8.07 9.59-12.237 18.5-12.5a840.27 840.27 0 0 1 41-.5c-.167-16.67 0-33.337.5-50 4.551-61.633 35.051-104.799 91.5-129.5l96-35c2.167-.833 3.667-2.333 4.5-4.5a206.144 206.144 0 0 0-1-40 3133.53 3133.53 0 0 1-45.5-27.5c-22.623-21.102-31.623-47.102-27-78 .117-5.37-1.383-10.204-4.5-14.5-49.197-42.943-62.864-95.276-41-157a169.921 169.921 0 0 1 18-30c33.5-34.833 67.667-69 102.5-102.5 13.86-10.1 29.193-16.6 46-19.5Zm6 37a55.17 55.17 0 0 1 18 2c2.6 14.17-.234 27.17-8.5 39a651.892 651.892 0 0 0-42 44c-5.653 9.862-4.486 18.695 3.5 26.5 8.43 3.853 16.43 3.186 24-2a1366.33 1366.33 0 0 0 43.5-44.5c7.754-10.51 13.087-22.178 16-35 8.622 20.268 5.956 38.935-8 56a34064.833 34064.833 0 0 1-155.5 155c-35.282-30.122-45.115-67.122-29.5-111a119.21 119.21 0 0 1 14-22 1821.128 1821.128 0 0 1 102.5-100.5c6.95-4.037 14.283-6.537 22-7.5Zm92 80a6970.792 6970.792 0 0 1 70.5 70c15.844 21.207 15.177 41.873-2 62a47.911 47.911 0 0 1-13.5 9.5c-7.229 1.588-13.562-.079-19-5a8875.53 8875.53 0 0 1-79-79.5 1376.525 1376.525 0 0 0 30.5-32 73.45 73.45 0 0 0 12.5-25Zm-70 83a8867.468 8867.468 0 0 0 79 79.5 383.424 383.424 0 0 0 22 14.5 336.13 336.13 0 0 1-1.5 59c-2.793 10.463-8.96 18.296-18.5 23.5l-76 43c-10.28 3.688-19.947 2.354-29-4a4189.86 4189.86 0 0 1-75-44c-5.474-5.108-9.307-11.275-11.5-18.5-2.714-12.607-3.38-25.273-2-38l3-6a5626.968 5626.968 0 0 0 109.5-109Zm-38 251c21.507 11.954 43.007 11.954 64.5 0l1 22c2.15 18.82 12.316 30.986 30.5 36.5a4306.824 4306.824 0 0 1 98 36c37.18 17.861 58.012 47.361 62.5 88.5.5 17.997.667 35.997.5 54h-49c.167-18.67 0-37.336-.5-56 .728-30.26-13.439-49.428-42.5-57.5a6151.594 6151.594 0 0 0-262 0c-22.57 3.704-37.07 16.537-43.5 38.5a130.883 130.883 0 0 0-2 12 1983.68 1983.68 0 0 0-.5 63h-49a434.01 434.01 0 0 1 3.5-70c7.381-33.374 26.548-57.208 57.5-71.5a3171.132 3171.132 0 0 1 100-37c17.722-5.385 27.888-17.219 30.5-35.5.5-7.659.666-15.326.5-23Zm-78 159c78.676-.41 157.342.09 236 1.5 5.435 1.77 9.268 5.27 11.5 10.5a466.593 466.593 0 0 1 .5 66h-275a772.664 772.664 0 0 1 1.5-67c1.5-4.167 4.333-7 8.5-8.5a286.822 286.822 0 0 1 17-2.5Z" opacity=".976"/><path d="M134.024 260.204c16.615-1.879 24.782 5.454 24.5 22a115.296 115.296 0 0 1-16 24c-5.523 8.133-5.856 16.466-1 25a263.566 263.566 0 0 1 22 32c7.07 19.621 5.736 38.621-4 57-6.688 12.43-16.52 15.93-29.5 10.5-6.634-4.9-9.134-11.4-7.5-19.5a240.839 240.839 0 0 1 8-19c1.035-6.015.035-11.682-3-17a139.407 139.407 0 0 1-22-32c-7.242-19.803-5.575-38.803 5-57a384.797 384.797 0 0 1 16-21 100.813 100.813 0 0 1 7.5-5Z" opacity=".971"/><path d="M692.024 260.204c11.46-2.024 19.293 2.31 23.5 13 .867 5.197.2 10.197-2 15a157.743 157.743 0 0 0-17 25c-1.456 7.545-.123 14.545 4 21 11.946 12.551 20.28 27.218 25 44a100.2 100.2 0 0 1 0 20 416.533 416.533 0 0 1-11 25c-6.14 9.603-14.64 12.436-25.5 8.5-8.385-4.809-11.55-11.976-9.5-21.5a119.485 119.485 0 0 0 8-17c1.207-7.173-.127-13.84-4-20-34.496-37.237-33.662-73.737 2.5-109.5 1.932-1.459 3.932-2.625 6-3.5ZM34.024 315.204c4.95-.54 9.616.292 14 2.5 4.835 4.188 8.835 9.022 12 14.5-4.36 10.852-10.526 20.518-18.5 29-5.478 8.485-5.811 17.151-1 26a183.672 183.672 0 0 1 22 33c9.045 24.44 4.878 46.273-12.5 65.5-12.237 6.254-21.737 3.42-28.5-8.5-2-4.333-2-8.667 0-13 4.349-6.198 7.182-13.03 8.5-20.5a43.162 43.162 0 0 0-5.5-15.5c-8.565-9.239-15.565-19.573-21-31-6.212-19.549-4.212-38.216 6-56a252.929 252.929 0 0 1 13-17c3.183-4.038 7.017-7.038 11.5-9Z" opacity=".97"/><path d="M592.024 315.204c17.477-.333 24.643 8 21.5 25a274.258 274.258 0 0 1-16 23c-4.942 9.37-4.275 18.37 2 27 8.565 9.24 15.565 19.573 21 31 5.637 18.216 4.303 35.882-4 53-4.125 8.466-10.79 13.466-20 15-14.237-1.804-20.237-9.804-18-24l7-14c2.237-7.734 1.237-15.067-3-22-34.672-37.43-33.839-74.097 2.5-110 2.265-1.627 4.6-2.96 7-4Z" opacity=".971"/><path d="M341.024 342.204a60.931 60.931 0 0 1 11 .5 44.852 44.852 0 0 0 10.5 3.5 44.852 44.852 0 0 0 10.5-3.5c14.284-2.383 22.284 3.617 24 18-.03 6.394-2.697 11.394-8 15a213.72 213.72 0 0 1-26.5 10.5 213.72 213.72 0 0 1-26.5-10.5c-8.658-7.608-10.158-16.44-4.5-26.5 2.53-3.385 5.696-5.718 9.5-7Z" opacity=".964"/></g></svg>