<svg xmlns="http://www.w3.org/2000/svg" width="725.039" height="520.397"><g fill="#6D2DF6" fill-rule="evenodd"><path d="M434.938.396c37.607-3.123 64.44 12.21 80.5 46 12.137 42.29-1.03 73.79-39.5 94.5-37.521 12.602-68.021 3.102-91.5-28.5-12.445-23.015-13.78-46.682-4-71 11.738-22.278 29.904-35.945 54.5-41Zm7 44c19.706-.459 31.039 9.041 34 28.5-1.768 17.602-11.435 27.435-29 29.5-21.655-3.647-30.822-16.314-27.5-38 4.276-10.45 11.776-17.118 22.5-20Z" opacity=".98"/><path d="M255.938 111.396c10.3-1.1 18.466 2.566 24.5 11l147 224a12351.298 12351.298 0 0 0 82-125c10.489-12.858 22.323-14.358 35.5-4.5a37833.764 37833.764 0 0 1 176.5 267.5c6.42 12.703 4.255 23.536-6.5 32.5a28.352 28.352 0 0 1-11 3c-227.667.667-455.333.667-683 0-17.616-3.746-24.116-14.246-19.5-31.5l240-366c3.95-5.034 8.784-8.7 14.5-11Zm4 64c1.693.975 3.193 2.308 4.5 4a7109.134 7109.134 0 0 0 62 95c.667 2 .667 4 0 6a1093.678 1093.678 0 0 0-21 39 1579.163 1579.163 0 0 1-25-47c-6.855-9.645-16.022-12.812-27.5-9.5-4.08 2.075-7.58 4.908-10.5 8.5l-26 48-21-40c-.667-1.667-.667-3.333 0-5a8840.27 8840.27 0 0 0 64.5-99Zm268 99c.996-.086 1.829.248 2.5 1a798.43 798.43 0 0 1 20.5 32 453.138 453.138 0 0 1-22 34 350.115 350.115 0 0 1-21-33.5 18.091 18.091 0 0 1 2.5-6.5 289.527 289.527 0 0 0 17.5-27Zm-172 45c33.94 51.626 67.94 103.293 102 155a19409.852 19409.852 0 0 1-394 0 23758.829 23758.829 0 0 1 101.5-154 780.681 780.681 0 0 1 31 57c6.118 9.974 14.952 13.807 26.5 11.5a26.592 26.592 0 0 0 10.5-6.5 2291.109 2291.109 0 0 0 27.5-50l28.5 51c12.83 9.09 24.497 7.756 35-4a2583.617 2583.617 0 0 0 31.5-60Zm123 29a435.85 435.85 0 0 1 30.5 46c9.09 10.664 19.924 12.831 32.5 6.5a71.104 71.104 0 0 0 15.5-21.5 468.212 468.212 0 0 1 21-30 15693.572 15693.572 0 0 1 82.5 125l-73.5 1c-25.252.158-50.42-.342-75.5-1.5a2500.007 2500.007 0 0 1-57-86.5 30660.25 30660.25 0 0 0 24-39Z" opacity=".979"/></g></svg>