<svg xmlns="http://www.w3.org/2000/svg" width="624.791" height="624.774"><path fill="#6D2DF6" fill-rule="evenodd" d="M307 0c120.189 2.319 212.022 53.986 275.5 155 48.198 87.434 55.198 178.1 21 272-38.644 91.645-105.144 153.145-199.5 184.5-99.041 27.549-190.707 12.216-275-46C45.961 502.262 2.961 418.096 0 313 4.316 193.133 57.316 102.299 159 40.5 205.213 15.116 254.547 1.616 307 0Zm-13 34c96.772-3.35 175.939 31.983 237.5 106 56.448 75.243 72.781 158.576 49 250-30.833 96.167-94.333 159.667-190.5 190.5-97.695 25.067-185.029 5.4-262-59C53 450.839 23.166 364.339 38.5 262 59.386 165.127 114.886 96.294 205 55.5c28.692-11.758 58.359-18.924 89-21.5Zm-6 73a4.934 4.934 0 0 1 3 .5A4880.1 4880.1 0 0 0 240 210a1984.417 1984.417 0 0 1-115 16c33.803-67.74 88.136-107.406 163-119Zm47 0c75.847 11.062 130.847 50.729 165 119a2458.528 2458.528 0 0 1-114-15.5A2975.827 2975.827 0 0 1 335 107Zm-23 43a5663.39 5663.39 0 0 1 45.5 90 26.592 26.592 0 0 0 10.5 6.5 2829.337 2829.337 0 0 1 97 15 10915.869 10915.869 0 0 0-70.5 69.5c-3.266 5.202-4.266 10.869-3 17a1927.241 1927.241 0 0 1 15 93 10641.006 10641.006 0 0 0-86.5-45.5c-5-2-10-2-15 0a10641.006 10641.006 0 0 0-86.5 45.5c4.45-30.365 9.45-60.699 15-91 1.63-7.655.296-14.655-4-21L160 261.5a2939.171 2939.171 0 0 1 97-15c4.739-1.119 8.572-3.619 11.5-7.5l43.5-89ZM111 268a4862.42 4862.42 0 0 1 84 82 21050.613 21050.613 0 0 0-20.5 116c-57.151-54.291-78.318-120.291-63.5-198Zm402 0c14.402 65.402.569 124.402-41.5 177a156.193 156.193 0 0 1-21 21 3617.685 3617.685 0 0 1-19-118 9263.326 9263.326 0 0 0 81.5-80ZM311 435a3132.82 3132.82 0 0 1 107 55.5c-51.076 29.135-105.076 36.135-162 21a228.636 228.636 0 0 1-47-20c-1.211-.893-1.211-1.726 0-2.5a3693.571 3693.571 0 0 0 102-54Z" opacity=".971"/></svg>