<svg xmlns="http://www.w3.org/2000/svg" width="679.055" height="556.891"><path fill="#6D2DF6" fill-rule="evenodd" d="M129.117.055c19.183-.835 31.683 7.832 37.5 26 1.759 9.665.092 18.665-5 27a1402.626 1402.626 0 0 0-35.5 50.5 157.83 157.83 0 0 0 16.5 12.5c2.099-36.744 20.266-61.577 54.5-74.5 32.914-4.962 56.414 7.538 70.5 37.5 4.33 13.97 4.664 27.97 1 42a526.845 526.845 0 0 1 33.5-43.5c18.208-10.626 34.375-8.126 48.5 7.5 6.035 10.528 7.035 21.528 3 33a2547.852 2547.852 0 0 1-38.5 56 108.123 108.123 0 0 0 16 12c2.418-33.017 18.418-56.85 48-71.5 31.084-8.975 55.584-.142 73.5 26.5 10 20 10 40 0 60-8.167 17.5-21 30.333-38.5 38.5 4.623 4.738 8.123 10.238 10.5 16.5a951.133 951.133 0 0 0 14.5 40c4.432-21.461 11.932-41.794 22.5-61l41.5-65.5a210.9 210.9 0 0 1-33.5-35.5c-12.076-21.665-11.076-42.665 3-63l44-60c17.956-15.204 35.289-14.537 52 2 8.273 13.106 8.606 26.44 1 40a1402.626 1402.626 0 0 0-35.5 50.5 157.83 157.83 0 0 0 16.5 12.5c1.182-29.877 14.348-52.71 39.5-68.5 31.545-13.989 58.045-7.489 79.5 19.5 10.607 18.183 12.274 37.183 5 57-5.552 11.949-12.719 22.782-21.5 32.5a95.638 95.638 0 0 1-20 12c4.286 4.064 7.452 8.897 9.5 14.5l27 76c6.412 25.798-1.755 45.298-24.5 58.5a244.17 244.17 0 0 1-63 11.5 4882.459 4882.459 0 0 1 26 121c-1.79 22.624-13.957 34.624-36.5 36-18.066-.735-29.733-9.735-35-27a4828.155 4828.155 0 0 0-29-115 7893.454 7893.454 0 0 1-30 120c-10.504 20.175-26.67 26.675-48.5 19.5-16.506-8.51-23.339-22.01-20.5-40.5a6640.76 6640.76 0 0 1 10.5-50l-1-2a304.971 304.971 0 0 1-55 9 35186.1 35186.1 0 0 1 25.5 115c.505 29.494-13.995 43.327-43.5 41.5-14.06-3.726-23.226-12.559-27.5-26.5a7367.705 7367.705 0 0 0-29-116l-29 118c-9.445 21.636-25.611 29.136-48.5 22.5-17.087-8.12-24.254-21.62-21.5-40.5a4279.24 4279.24 0 0 1 39-178 181.928 181.928 0 0 1 7.5-17 873.997 873.997 0 0 1-48 9.5 98.432 98.432 0 0 1-14 .5 35186.1 35186.1 0 0 1 25.5 115c1.963 21.346-7.203 35.179-27.5 41.5-22.04 3.241-36.54-5.592-43.5-26.5a4828.156 4828.156 0 0 0-29-115l-28 114c-6.887 21.868-21.721 31.034-44.5 27.5-22.493-8.144-30.993-23.977-25.5-47.5a8851.878 8851.878 0 0 1 35-163 213.32 213.32 0 0 1 17-40l41.5-65a244.421 244.421 0 0 1-33.5-36c-12.076-21.665-11.076-42.665 3-63l44-60c5.855-5.675 12.689-9.342 20.5-11Zm2 24c3.631-.34 6.964.494 10 2.5 1.782 2.243 2.282 4.743 1.5 7.5a131.76 131.76 0 0 1-10 17 758.946 758.946 0 0 0-27 38c-7.644 14.921-4.811 27.421 8.5 37.5a4797.47 4797.47 0 0 1 95.5 62.5 2574.68 2574.68 0 0 1 28 76c4.232 14.701-.601 25.201-14.5 31.5a288.87 288.87 0 0 1-49 8c-6.513-3.567-7.513-8.234-3-14a341.61 341.61 0 0 1 42-11c7.691-2.879 10.524-8.379 8.5-16.5a1653.595 1653.595 0 0 0-19-51c-7.818-6.891-15.152-6.224-22 2a399.663 399.663 0 0 0-31 50 128.393 128.393 0 0 0-6.5 35.5 4710.97 4710.97 0 0 0 31.5 145.5c1.565 14.116-4.268 18.949-17.5 14.5-2.117-1.731-3.617-3.898-4.5-6.5l-34-138c-6.903-13.188-17.07-16.355-30.5-9.5-2.933 2.264-5.1 5.098-6.5 8.5a24325.154 24325.154 0 0 0-33 134c-.873 6.193-4.04 10.693-9.5 13.5-8.575.933-13.575-2.901-15-11.5a15227.737 15227.737 0 0 1 36.5-169 217.418 217.418 0 0 1 16-36 4117.823 4117.823 0 0 0 46-73c1.242-5.194.242-9.86-3-14l-20.5-18.5a180.42 180.42 0 0 1-15.5-16.5c-7.722-13.398-7.056-26.398 2-39a2772.002 2772.002 0 0 1 45.5-60Zm408-.002c11.278-.105 14.445 4.895 9.5 15.002a1495.582 1495.582 0 0 0-37 54c-4.912 13.862-1.412 25.028 10.5 33.5a4797.47 4797.47 0 0 1 95.5 62.5 2574.68 2574.68 0 0 1 28 76c4.226 14.713-.607 25.213-14.5 31.5a288.87 288.87 0 0 1-49 8c-7.038-4.186-7.705-9.186-2-15a754.986 754.986 0 0 1 41-10c7.71-2.919 10.543-8.419 8.5-16.5a1653.595 1653.595 0 0 0-19-51c-7.818-6.891-15.152-6.224-22 2a399.663 399.663 0 0 0-31 50 120.699 120.699 0 0 0-6.5 35.5 4152.212 4152.212 0 0 0 31.5 145.5c1.565 14.116-4.268 18.949-17.5 14.5-2.117-1.731-3.617-3.898-4.5-6.5l-34-138c-6.903-13.188-17.07-16.355-30.5-9.5-2.933 2.264-5.1 5.098-6.5 8.5a9803.548 9803.548 0 0 0-33 134c-.873 6.193-4.04 10.693-9.5 13.5-8.575.933-13.575-2.901-15-11.5a10273.465 10273.465 0 0 1 36.5-169 183.51 183.51 0 0 1 12-29l50-80c1.242-5.194.242-9.86-3-14a445.951 445.951 0 0 1-36-35c-7.722-13.398-7.056-26.398 2-39a1376.285 1376.285 0 0 1 45.5-60.002Zm-335 40.002c18.457-2.356 31.957 4.644 40.5 21 3.333 9.333 3.333 18.667 0 28a337.406 337.406 0 0 1-13 21c-15.017 15.989-31.851 18.155-50.5 6.5-11.98-10.749-15.814-23.915-11.5-39.5 5.625-11.939 13.125-22.439 22.5-31.5a98.558 98.558 0 0 1 12-5.5Zm408 0c18.457-2.356 31.957 4.644 40.5 21 3.333 9.333 3.333 18.667 0 28a337.406 337.406 0 0 1-13 21c-15.017 15.989-31.851 18.155-50.5 6.5-12.158-10.803-15.992-23.969-11.5-39.5 5.625-11.939 13.125-22.439 22.5-31.5a98.558 98.558 0 0 1 12-5.5Zm-292 31c8.165-1.325 11.998 2.009 11.5 10a763.476 763.476 0 0 1-36 53c-8.889 14.734-6.722 27.567 6.5 38.5a5911.719 5911.719 0 0 0 87 56 40.616 40.616 0 0 1 10.5 8.5l27 75c4.175 15.158-.991 25.658-15.5 31.5a892.123 892.123 0 0 1-44.5 8.5c-5.601-.435-8.768-3.435-9.5-9 .44-2.714 1.774-4.88 4-6.5a676.767 676.767 0 0 1 43-11c6.408-3.323 8.575-8.489 6.5-15.5l-17-47c-2.588-7.597-7.755-10.43-15.5-8.5-3.402 1.4-6.236 3.567-8.5 6.5a572.937 572.937 0 0 0-30 47 120.716 120.716 0 0 0-7.5 38.5 4707.16 4707.16 0 0 0 31.5 145.5c1.985 9.345-1.682 15.011-11 17-5.476-.811-9.142-3.811-11-9l-34-138c-6.285-12.987-16.118-16.487-29.5-10.5-3.321 2.452-5.821 5.618-7.5 9.5a11065.212 11065.212 0 0 1-36 142c-5.961 7.567-12.294 7.9-19 1a29.198 29.198 0 0 1-2.5-7 14683.97 14683.97 0 0 1 35.5-166 212.473 212.473 0 0 1 15-36l48-76c1.007-4.611.34-8.945-2-13a945.098 945.098 0 0 1-37-36c-8.164-14.857-6.831-28.857 4-42a1331.967 1331.967 0 0 1 43.5-57Zm77 39c27.119 1.584 39.952 15.917 38.5 43-4.495 13.154-11.661 24.654-21.5 34.5-19.647 11.735-36.813 8.902-51.5-8.5-6.568-10.939-7.568-22.273-3-34a188.131 188.131 0 0 1 14-22c6.393-7.11 14.226-11.443 23.5-13Zm-153 23c-5.218 22.456-.051 42.456 15.5 60a406.15 406.15 0 0 0 24.5 23.5 1448.134 1448.134 0 0 0-19.5 30.5 1025.982 1025.982 0 0 0-34-96 25.55 25.55 0 0 0-5.5-6.5c7.031-2.902 13.364-6.736 19-11.5Zm-56 90c2.719 3.452 4.385 7.452 5 12a490.534 490.534 0 0 1-14 2.5 110.172 110.172 0 0 0 9-14.5Zm408 0c2.719 3.452 4.385 7.452 5 12a490.534 490.534 0 0 1-14 2.5 110.172 110.172 0 0 0 9-14.5Zm-219 71c2.812 3.413 4.479 7.413 5 12a44.108 44.108 0 0 0-13.5 3l-.5-1c3.026-4.684 6.026-9.351 9-14Z" opacity=".964"/></svg>