<svg xmlns="http://www.w3.org/2000/svg" width="705.349" height="470.567"><path fill="#6D2DF6" fill-rule="evenodd" d="M569.643.002c13.022-.145 18.856 6.188 17.5 19.003-1.923 6.221-6.09 10.054-12.5 11.5l-69 23c-.928.388-1.595 1.055-2 2 15.036 49.44 29.87 98.94 44.5 148.5 1.686 2.419 4.02 3.419 7 3 61.605-5.037 107.272 19.296 137 73 22.552 52.122 16.22 100.455-19 145-35.92 38.194-79.753 52.361-131.5 42.5-44.599-12.265-75.765-39.765-93.5-82.5-15.198-45.951-8.865-88.617 19-128 14.632-17.714 32.132-31.714 52.5-42a1291.591 1291.591 0 0 0-15-48 4759.486 4759.486 0 0 0-114 148c10.882 22.294 7.216 41.794-11 58.5-22.22 13.968-42.72 11.801-61.5-6.5l-6-10a11.532 11.532 0 0 0-4.5-3.5c-14.663-.5-29.33-.667-44-.5-11.834 68.001-51.834 107.168-120 117.5-68.983 1.649-115.15-29.851-138.5-94.5-15.49-64.219 4.01-114.719 58.5-151.5 41.256-23.354 83.423-25.187 126.5-5.5l53-82c1.885-2.414 2.552-5.081 2-8a1328.28 1328.28 0 0 0-35.5-68.5l-19-1c-14.57-3.643-18.405-12.143-11.5-25.5 2.956-2.727 6.456-4.227 10.5-4.5 30-.667 60-.667 90 0 12.578 2.647 16.745 10.147 12.5 22.5-3.058 4.923-7.558 7.423-13.5 7.5a547.383 547.383 0 0 0-33 1.5l25.5 51a14.51 14.51 0 0 0 4.5 4.5c71.333.5 142.666.667 214 .5a2621.995 2621.995 0 0 0-19.5-68c-2.126-9.584 1.374-16.084 10.5-19.5a14004.127 14004.127 0 0 1 89-29.503Zm-280 148.003c63.004-.333 126.004 0 189 1a9588.596 9588.596 0 0 1-114.5 147 5115.927 5115.927 0 0 1-74.5-148Zm-28 16a6020.504 6020.504 0 0 1 66.5 131c.667 1.333.667 2.667 0 4a243.631 243.631 0 0 0-16 21 6.978 6.978 0 0 1-3.5 2.5c-15 .667-30 .667-45 0-3.972-25.436-13.806-48.269-29.5-68.5a227.912 227.912 0 0 1-17.5-18.5 8365.931 8365.931 0 0 0 45-71.5Zm-140 72c14.737-1.18 29.07.653 43 5.5a46.928 46.928 0 0 1 8 4.5 5233.1 5233.1 0 0 1-52.5 82c-4.54 6.688-4.54 13.355 0 20 1.952 2.394 4.452 3.894 7.5 4.5 34.665.5 69.332.667 104 .5-1.518 18.06-8.018 34.06-19.5 48-37.369 41.34-81.203 49.84-131.5 25.5-46.751-31.922-60.918-74.755-42.5-128.5 16.944-35.383 44.777-56.05 83.5-62Zm444 0c41.644-.933 73.478 16.067 95.5 51 22.824 46.212 16.658 88.045-18.5 125.5-32.308 28.108-68.64 34.775-109 20-35.923-15.992-56.757-43.492-62.5-82.5-3.004-35.81 8.83-65.643 35.5-89.5a123.16 123.16 0 0 1 22-13.5 5790.498 5790.498 0 0 0 31.5 100c8.333 8 16.667 8 25 0 2.962-4.814 3.295-9.814 1-15a3227.57 3227.57 0 0 0-27.5-93c2.264-1.369 4.597-2.369 7-3Zm-367 26c18.446 15.824 29.78 35.824 34 60-24 1.333-48 1.333-72 0a1672.786 1672.786 0 0 0 38-60Zm151 62c9.476.306 15.143 5.14 17 14.5-3.16 12.181-10.494 15.847-22 11-6.537-5.475-7.704-11.975-3.5-19.5 2.322-2.895 5.155-4.895 8.5-6Z" opacity=".97"/></svg>