<svg xmlns="http://www.w3.org/2000/svg" width="714.441" height="653"><g fill="#6D2DF6" fill-rule="evenodd"><path d="M322.183 0c40.986 2.816 65.153 24.482 72.5 65 10.045 19.273 13.045 39.606 9 61-.57 40.67-.904 81.337-1 122a696.831 696.831 0 0 0 10.5 83.5 7540.981 7540.981 0 0 1 170-31 4804.057 4804.057 0 0 0 107-27 42.479 42.479 0 0 1 13 0 17.842 17.842 0 0 1 5.5 4.5c5.231 10.755 6.898 22.088 5 34-5.396 26.046-20.23 44.213-44.5 54.5-11.322 10.663-24.655 17.663-40 21a203.323 203.323 0 0 0-37 8c33.317 10.723 59.15 30.89 77.5 60.5 2.261 11.896-2.572 18.563-14.5 20-5.128.02-9.294-1.98-12.5-6-24.334-32.504-57-49.504-98-51-42.368 1.342-75.368 19.342-99 54-17.519 30.884-17.852 61.884-1 93a9.454 9.454 0 0 0 2.5 1.5 1634 1634 0 0 1 45 4c13.021 3.019 22.521 10.519 28.5 22.5a245.368 245.368 0 0 1 5.5 26.5c50.857 5.95 91.191-11.717 121-53 12.518-4.574 20.518-.407 24 12.5a32.444 32.444 0 0 0-1.5 6 63.97 63.97 0 0 1-11 15 282.27 282.27 0 0 0-19.5 20.5c21.717.044 43.384.711 65 2 10.061 4.96 12.561 12.46 7.5 22.5-3.104 3.433-6.937 5.6-11.5 6.5-229.333.667-458.667.667-688 0-7.795-1.909-11.795-6.909-12-15 .007-4.858 1.674-9.025 5-12.5-10.996-28.156-4.496-51.156 19.5-69 14.277-49.414 47.11-70.581 98.5-63.5 17.427 1.05 32.427 7.55 45 19.5a463.465 463.465 0 0 1 43-52.5 506.605 506.605 0 0 1 73-54 6.978 6.978 0 0 0 2.5-3.5l1-128a551.8 551.8 0 0 1 4-39c5.427-35.652 10.76-71.319 16-107l1-115c1.14-7.974 5.64-12.308 13.5-13Zm17 35c8.484 3.313 14.984 8.979 19.5 17a107.327 107.327 0 0 1 7 25c6.547 10.358 9.381 21.524 8.5 33.5-11.662.5-23.329.667-35 .5V35Zm-3 107h36c-.167 39.001 0 78.001.5 117 2.6 27.134 6.1 54.134 10.5 81-.83 2.837-2.498 5.004-5 6.5l-59.5 35.5c-.667-39-.667-78 0-117a54457.196 54457.196 0 0 0 17.5-123Zm345 165c-.743 10.297-5.41 18.797-14 25.5a150.935 150.935 0 0 0-31 20c-4.977 2.827-10.31 4.327-16 4.5-2.337-10.675-4.67-21.342-7-32a1269.658 1269.658 0 0 0 68-18Zm-101 25c2.114.86 3.28 2.527 3.5 5a687.378 687.378 0 0 0 6.5 25l-1 2a49259.17 49259.17 0 0 1-167 56.5c-5.979 5.123-9.479 11.623-10.5 19.5-8.225 18.223-22.225 28.89-42 32-2.26.061-4.26-.606-6-2a1247.658 1247.658 0 0 1-35.5-57c29.095-22.886 61.428-40.052 97-51.5a396.14 396.14 0 0 1 33-8 4645.203 4645.203 0 0 0 122-21.5Zm-280 99c1.517.011 2.684.677 3.5 2l34.5 55a1473.295 1473.295 0 0 1-46 67.5 17.899 17.899 0 0 1-7.5 1.5c-12.61-1.727-25.11-1.227-37.5 1.5-24.107 10.706-34.273 29.206-30.5 55.5a34.033 34.033 0 0 1 1.5 8c-14.506-.876-28.173-4.71-41-11.5a330.667 330.667 0 0 0 11.5-33.5c.26-12.341.26-24.674 0-37 16.565-29.93 38.398-55.43 65.5-76.5a2450.558 2450.558 0 0 0 46-32.5Zm101 63h3c-3.934 24.087-2.267 47.753 5 71a2360.956 2360.956 0 0 1-81-5.5 617.064 617.064 0 0 1 38-55c11.81-3.44 23.476-6.94 35-10.5Zm-290 29c15.422-1.535 28.256 3.465 38.5 15 13.553 20.414 12.387 39.914-3.5 58.5a78.697 78.697 0 0 1-10 6.5 340.055 340.055 0 0 1-1.5-26c-1.736-6.737-5.903-11.237-12.5-13.5-6.573-5.646-10.073-12.812-10.5-21.5-.5-6.325-.666-12.658-.5-19Zm-32 5c.722.418 1.222 1.084 1.5 2a160.17 160.17 0 0 0 3 30 51.423 51.423 0 0 0 7 15c4.362 5.025 8.696 10.025 13 15 .5 5.991.666 11.991.5 18a1420.858 1420.858 0 0 0-25-1.5 22.981 22.981 0 0 0-5 2 50.33 50.33 0 0 1-16 13c-15.869 1.805-25.202-5.195-28-21 .81-6.285 3.476-11.618 8-16a72.734 72.734 0 0 0 14.5-8.5l3-5c.077-18.838 7.91-33.171 23.5-43Zm184 58a73899.992 73899.992 0 0 1 221 15.5c9.03 2.675 11.53 8.175 7.5 16.5a15.83 15.83 0 0 1-5.5 3.5c-75 .667-150 .667-225 0-14.128-4.765-17.962-13.931-11.5-27.5 3.617-4.384 8.117-7.05 13.5-8Z" opacity=".973"/><path d="M668.183 506c17.02-1.142 23.187 6.525 18.5 23-5.436 6.94-12.269 8.774-20.5 5.5-8.25-5.849-10.083-13.349-5.5-22.5 2.134-2.653 4.634-4.653 7.5-6Z" opacity=".943"/></g></svg>