<svg xmlns="http://www.w3.org/2000/svg" width="781" height="791"><path fill="#6D2DF6" fill-rule="evenodd" d="M460.534.11c13.79-1.04 20.624 5.294 20.5 19a34715.744 34715.744 0 0 1-64.5 164.5c48.775 36.757 97.608 73.59 146.5 110.5 3.272 6.361 3.272 12.694 0 19a2707.009 2707.009 0 0 0-58.5 65.5 9326.3 9326.3 0 0 1 120.5 166.5c1.462 6.931.128 13.264-4 19a33628.564 33628.564 0 0 1-83.5 152.5 1453.628 1453.628 0 0 1 37.5 52.5c3.114 16.554-3.72 23.721-20.5 21.5-3.402-1.4-6.236-3.567-8.5-6.5a1902.14 1902.14 0 0 1-43-60 30.485 30.485 0 0 1 0-11 232.09 232.09 0 0 1 9.5-18 96.992 96.992 0 0 1-17-7.5l-107-83a9429.77 9429.77 0 0 0-97-5c-47.757-5.097-79.59-30.263-95.5-75.5a37861.741 37861.741 0 0 1-34-169c-3.784-27.922 6.05-49.422 29.5-64.5a1201.331 1201.331 0 0 0 26-11.5c-42.656-7.987-63.49-33.654-62.5-77 7.266-37.763 30.099-58.097 68.5-61 29.986 1.512 51.153 15.845 63.5 43 6 17.333 6 34.667 0 52-3.785 7.371-7.785 14.371-12 21a1315.112 1315.112 0 0 1 31.5-13 4393.356 4393.356 0 0 0 33.5-82c7.914-18.875 22.08-27.375 42.5-25.5 5.429.753 10.429 2.587 15 5.5a34198.827 34198.827 0 0 1 54.5-136c2.322-2.895 5.155-4.895 8.5-6Zm-85 168c4.535.202 7.202 2.535 8 7a2870.785 2870.785 0 0 1-27.5 102c-4.124 6.458-9.29 11.958-15.5 16.5a2887.714 2887.714 0 0 0-63 35c-2.436 2.707-3.936 5.873-4.5 9.5a7503.14 7503.14 0 0 0 27 170c1.833 3.833 4.667 6.667 8.5 8.5a5979.533 5979.533 0 0 0 95 19 102.827 102.827 0 0 1 30 14 6638.271 6638.271 0 0 1 98.5 95.5c3.002 11.662-1.498 17.495-13.5 17.5a3379.795 3379.795 0 0 1-111-85 36.16 36.16 0 0 0-7-4c-34.262-2.6-68.595-4.6-103-6-35.34-2.351-58.84-20.185-70.5-53.5a35789.113 35789.113 0 0 1-33-164c-2.03-15.78 4.137-26.947 18.5-33.5a8870.955 8870.955 0 0 0 117-47 18.778 18.778 0 0 0 4.5-5.5l37-92c1.397-1.57 2.897-2.904 4.5-4Zm-160 6c22.356-1.917 36.856 7.75 43.5 29 2.03 21.444-7.136 35.61-27.5 42.5-26.331 2.501-41.331-9.333-45-35.5 1.62-18.609 11.288-30.609 29-36Zm291 263a3240.784 3240.784 0 0 0-68-34.5c-24.23-7.808-48.23-7.141-72 2a3182.597 3182.597 0 0 0-46.5 26.5 5117.047 5117.047 0 0 0-13.5-81 2488.955 2488.955 0 0 0 58-33.5c10.147-8.804 17.98-19.304 23.5-31.5a7840.032 7840.032 0 0 1 18.5-67 15336.43 15336.43 0 0 1 119 88.5 2244.045 2244.045 0 0 0-52.5 57.5c-5.89 6.684-6.89 14.017-3 22a2637.974 2637.974 0 0 1 36.5 51Zm-108-8c12.995-.692 25.328 1.808 37 7.5a7883.565 7883.565 0 0 0 105 56c5.53 6.44 4.53 11.773-3 16-1.667.667-3.333.667-5 0a4616.199 4616.199 0 0 0-124.5-44.5c-4.308.324-8.141 1.824-11.5 4.5a659.03 659.03 0 0 1-32.5 26.5l-33-7c-.945-.405-1.612-1.072-2-2a397.794 397.794 0 0 0-3.5-19.5 583.79 583.79 0 0 1 56-33 165.564 165.564 0 0 1 17-4.5Zm12 70a23700.88 23700.88 0 0 0 116 41.5c17.496 2.45 31.829-3.05 43-16.5a427.467 427.467 0 0 1 21 27.5 6784.527 6784.527 0 0 0-37.5 68.5l-93.5-91.5c-15.626-12.646-33.293-21.312-53-26 1.824-.66 3.157-1.827 4-3.5Z" opacity=".972"/></svg>