<svg xmlns="http://www.w3.org/2000/svg" width="606.599" height="606.864"><g fill="#6D2DF6" fill-rule="evenodd"><path d="M427.704 0c53.753.471 98.92 20.138 135.5 59 40.036 51.165 52.369 108.498 37 172-29.455 100.79-94.955 164.29-196.5 190.5a830.83 830.83 0 0 1-59 7 805.858 805.858 0 0 0-111 31c-21.884 8.268-41.884 19.602-60 34a8158.586 8158.586 0 0 0-108 107c-9.896 7.757-20.229 8.423-31 2a593.448 593.448 0 0 1-29.5-28.5c-7.551-11.803-6.885-23.136 2-34a6716.125 6716.125 0 0 1 98-97c20.731-23.78 36.064-50.78 46-81 17.965-49.19 28.965-99.856 33-152 11.528-58.572 39.695-107.405 84.5-146.5 45.523-39.679 98.523-60.845 159-63.5Zm-16 65c2.283.108 4.283.941 6 2.5l15 15a550.98 550.98 0 0 1-20 19.5 495.839 495.839 0 0 1-19-18.5 468.225 468.225 0 0 0 18-18.5Zm65 9c4.011.002 7.678 1.168 11 3.5a161.59 161.59 0 0 1 14 10.5 307.286 307.286 0 0 1-14.5 15 550.98 550.98 0 0 1-19.5-20 57.42 57.42 0 0 1 9-9Zm-123 7a12.93 12.93 0 0 1 5 .5c.951.718 1.117 1.551.5 2.5l-19 19a107.985 107.985 0 0 1-8.5-9c7.397-4.36 14.73-8.693 22-13Zm22 21c7.257 5.587 13.924 11.921 20 19a229.509 229.509 0 0 1-18 18c-6.667-6-13-12.333-19-19 5.688-6.02 11.355-12.02 17-18Zm74 0a495.007 495.007 0 0 1 19 18.5 495.839 495.839 0 0 1-19 18.5 467.995 467.995 0 0 0-18-18.5 468.225 468.225 0 0 0 18-18.5Zm70 3c5.221 7.268 9.554 15.102 13 23.5-1.641 4.818-4.641 8.651-9 11.5a550.98 550.98 0 0 1-20-19.5 243.508 243.508 0 0 0 16-15.5Zm-210 4c4.739 3.231 9.072 7.064 13 11.5a495.839 495.839 0 0 1-19 18.5 163.222 163.222 0 0 1-11-10.5 461.668 461.668 0 0 0 17-19.5Zm30 29a173.063 173.063 0 0 1 20 18.5 495.839 495.839 0 0 1-19 18.5 495.839 495.839 0 0 1-19-18.5 468.225 468.225 0 0 0 18-18.5Zm146 1c6.923 5.253 13.257 11.253 19 18a495.839 495.839 0 0 1-18.5 19 469.398 469.398 0 0 0-17.5-19c5.688-6.02 11.355-12.02 17-18Zm-72 1c6.59 4.919 12.59 10.586 18 17a229.509 229.509 0 0 1-18 18c-6-5.333-11.667-11-17-17 5.688-6.02 11.355-12.02 17-18Zm-138 8c3.915 2.243 7.249 5.243 10 9a495.839 495.839 0 0 1-18.5 19 39.447 39.447 0 0 0-4.5-6 3705.648 3705.648 0 0 0 13-22Zm248 26a255.314 255.314 0 0 1 19 19 204.54 204.54 0 0 1-19 20 174.917 174.917 0 0 1-19-19.5 522.556 522.556 0 0 0 19-19.5Zm-221 1c6.923 5.253 13.257 11.253 19 18a495.839 495.839 0 0 1-18.5 19l-18.5-18.5a468.225 468.225 0 0 0 18-18.5Zm74 0a495.007 495.007 0 0 1 19 18.5l-18.5 18.5-18.5-18.5a468.225 468.225 0 0 0 18-18.5Zm72 0a173.063 173.063 0 0 1 20 18.5l-18.5 18.5a495.839 495.839 0 0 1-18.5-19c5.688-6.02 11.355-12.02 17-18Zm-181 36a229.508 229.508 0 0 1 18 18c-6 6.667-12.333 13-19 19l-17-18c6.022-6.354 12.022-12.687 18-19Zm73 0a495.007 495.007 0 0 1 19 18.5 495.839 495.839 0 0 1-19 18.5 229.509 229.509 0 0 1-18-18c6.022-6.354 12.022-12.687 18-19Zm72 0a121.4 121.4 0 0 1 18 19 229.509 229.509 0 0 1-18 18 229.509 229.509 0 0 1-18-18c6.022-6.354 12.022-12.687 18-19Zm74 0c5.951 6.287 11.951 12.62 18 19a229.509 229.509 0 0 1-18 18 229.509 229.509 0 0 1-18-18c6.022-6.354 12.022-12.687 18-19Zm36 36c2.973.465 4.14 2.132 3.5 5a387.056 387.056 0 0 1-13 23 107.985 107.985 0 0 1-8.5-9c6.022-6.354 12.022-12.687 18-19Zm-220 1c6.923 5.253 13.257 11.253 19 18a445.01 445.01 0 0 1-17.5 18l-18.5-18.5a418.271 418.271 0 0 0 17-17.5Zm74 0a488.404 488.404 0 0 1 19 18.5l-18.5 18.5-18.5-18.5a468.225 468.225 0 0 0 18-18.5Zm72 0c6.923 5.253 13.257 11.253 19 18a229.509 229.509 0 0 1-18 18 229.509 229.509 0 0 1-18-18c5.688-6.02 11.355-12.02 17-18Zm-205 12a63.707 63.707 0 0 1 7 6.5 17.842 17.842 0 0 0-5.5 4.5 27.866 27.866 0 0 1-1.5-11Zm23 24a490.907 490.907 0 0 1 19 18.5 495.839 495.839 0 0 1-19 18.5c-5.817-6.507-10.484-13.841-14-22 4.688-5.02 9.355-10.02 14-15Zm146 0a495.007 495.007 0 0 1 19 18.5 445.01 445.01 0 0 1-18 17.5 229.509 229.509 0 0 1-18-18c5.688-6.02 11.355-12.02 17-18Zm73 0c4.782 2.947 8.782 6.78 12 11.5a501.467 501.467 0 0 1-19 18.5 332.523 332.523 0 0 0-11-11.5 468.225 468.225 0 0 0 18-18.5Zm-146 1c6.743 5.237 13.077 11.071 19 17.5a495.839 495.839 0 0 1-19 18.5 40798.62 40798.62 0 0 0-17-18c5.688-6.02 11.355-12.02 17-18Zm-36 35a282.878 282.878 0 0 1 20 20c-4.406 5.576-9.573 10.243-15.5 14-8.906-3.198-16.739-8.031-23.5-14.5a522.556 522.556 0 0 0 19-19.5Zm146 0a49.864 49.864 0 0 1 10 10.5l-22 13c-3.787.543-5.953-.957-6.5-4.5a495.007 495.007 0 0 0 18.5-19Zm-74 1c6.923 5.253 13.257 11.253 19 18a229.509 229.509 0 0 1-18 18 229.509 229.509 0 0 1-18-18c5.688-6.02 11.355-12.02 17-18Zm-164 33a238.637 238.637 0 0 0 41 41 1174.182 1174.182 0 0 1-67 25.5 8127.692 8127.692 0 0 0 26-66.5Zm129 3a63.707 63.707 0 0 1 7 6.5c-4.054-.009-8.054-.676-12-2 2.118-1.049 3.784-2.549 5-4.5Zm-223 105a970.789 970.789 0 0 1 26.5 26c.667.667.667 1.333 0 2a4227.75 4227.75 0 0 1-95.5 94 265.223 265.223 0 0 1-24.5-23c-.982-1.259-1.315-2.592-1-4a12702.169 12702.169 0 0 0 94.5-95Z" opacity=".96"/><path d="M426.704 39c49.483.323 88.65 20.323 117.5 60 25.516 44.732 29.516 91.399 12 140-35.631 91.443-102.464 141.109-200.5 149-58.153-2.699-99.986-30.032-125.5-82-17.042-52.76-12.042-103.427 15-152 40.747-69.301 101.247-107.635 181.5-115Zm-15 26a468.225 468.225 0 0 1-18 18.5 495.839 495.839 0 0 0 19 18.5 550.98 550.98 0 0 0 20-19.5l-15-15c-1.717-1.559-3.717-2.392-6-2.5Zm65 9a57.42 57.42 0 0 0-9 9 550.98 550.98 0 0 0 19.5 20 307.286 307.286 0 0 0 14.5-15 161.59 161.59 0 0 0-14-10.5c-3.322-2.332-6.989-3.498-11-3.5Zm-123 7c-7.27 4.307-14.603 8.64-22 13a107.985 107.985 0 0 0 8.5 9l19-19c.617-.949.451-1.782-.5-2.5a12.93 12.93 0 0 0-5-.5Zm22 21c-5.645 5.98-11.312 11.98-17 18 6 6.667 12.333 13 19 19a229.509 229.509 0 0 0 18-18c-6.076-7.079-12.743-13.413-20-19Zm74 0a468.225 468.225 0 0 1-18 18.5 467.995 467.995 0 0 1 18 18.5 495.839 495.839 0 0 0 19-18.5 495.007 495.007 0 0 0-19-18.5Zm70 3a243.508 243.508 0 0 1-16 15.5 550.98 550.98 0 0 0 20 19.5c4.359-2.849 7.359-6.682 9-11.5-3.446-8.398-7.779-16.232-13-23.5Zm-210 4a461.668 461.668 0 0 1-17 19.5 163.222 163.222 0 0 0 11 10.5 495.839 495.839 0 0 0 19-18.5c-3.928-4.436-8.261-8.269-13-11.5Zm30 29a468.225 468.225 0 0 1-18 18.5 495.839 495.839 0 0 0 19 18.5 495.839 495.839 0 0 0 19-18.5 173.063 173.063 0 0 0-20-18.5Zm146 1c-5.645 5.98-11.312 11.98-17 18a469.398 469.398 0 0 1 17.5 19 495.839 495.839 0 0 0 18.5-19c-5.743-6.747-12.077-12.747-19-18Zm-72 1c-5.645 5.98-11.312 11.98-17 18 5.333 6 11 11.667 17 17a229.509 229.509 0 0 0 18-18c-5.41-6.414-11.41-12.081-18-17Zm-138 8a3705.648 3705.648 0 0 1-13 22 39.447 39.447 0 0 1 4.5 6 495.839 495.839 0 0 0 18.5-19c-2.751-3.757-6.085-6.757-10-9Zm248 26a522.556 522.556 0 0 1-19 19.5 174.917 174.917 0 0 0 19 19.5 204.54 204.54 0 0 0 19-20 255.314 255.314 0 0 0-19-19Zm-221 1a468.225 468.225 0 0 1-18 18.5l18.5 18.5a495.839 495.839 0 0 0 18.5-19c-5.743-6.747-12.077-12.747-19-18Zm74 0a468.225 468.225 0 0 1-18 18.5l18.5 18.5 18.5-18.5a495.007 495.007 0 0 0-19-18.5Zm72 0c-5.645 5.98-11.312 11.98-17 18a495.839 495.839 0 0 0 18.5 19l18.5-18.5a173.063 173.063 0 0 0-20-18.5Zm-181 36a60979.976 60979.976 0 0 1-18 19l17 18c6.667-6 13-12.333 19-19a229.508 229.508 0 0 0-18-18Zm73 0a60979.976 60979.976 0 0 1-18 19 229.509 229.509 0 0 0 18 18 495.839 495.839 0 0 0 19-18.5 495.007 495.007 0 0 0-19-18.5Zm72 0a60979.976 60979.976 0 0 1-18 19 229.509 229.509 0 0 0 18 18 229.509 229.509 0 0 0 18-18 121.4 121.4 0 0 0-18-19Zm74 0a60979.976 60979.976 0 0 1-18 19 229.509 229.509 0 0 0 18 18 229.509 229.509 0 0 0 18-18c-6.049-6.38-12.049-12.713-18-19Zm36 36a60979.976 60979.976 0 0 1-18 19 107.985 107.985 0 0 0 8.5 9 387.056 387.056 0 0 0 13-23c.64-2.868-.527-4.535-3.5-5Zm-220 1a418.271 418.271 0 0 1-17 17.5l18.5 18.5a445.01 445.01 0 0 0 17.5-18c-5.743-6.747-12.077-12.747-19-18Zm74 0a468.225 468.225 0 0 1-18 18.5l18.5 18.5 18.5-18.5a488.404 488.404 0 0 0-19-18.5Zm72 0c-5.645 5.98-11.312 11.98-17 18a229.509 229.509 0 0 0 18 18 229.509 229.509 0 0 0 18-18c-5.743-6.747-12.077-12.747-19-18Zm-205 12a27.866 27.866 0 0 0 1.5 11 17.842 17.842 0 0 1 5.5-4.5 63.707 63.707 0 0 0-7-6.5Zm23 24c-4.645 4.98-9.312 9.98-14 15 3.516 8.159 8.183 15.493 14 22a495.839 495.839 0 0 0 19-18.5 490.907 490.907 0 0 0-19-18.5Zm146 0c-5.645 5.98-11.312 11.98-17 18a229.509 229.509 0 0 0 18 18 445.01 445.01 0 0 0 18-17.5 495.007 495.007 0 0 0-19-18.5Zm73 0a468.225 468.225 0 0 1-18 18.5 332.523 332.523 0 0 1 11 11.5 501.467 501.467 0 0 0 19-18.5c-3.218-4.72-7.218-8.553-12-11.5Zm-146 1c-5.645 5.98-11.312 11.98-17 18a40798.62 40798.62 0 0 1 17 18 495.839 495.839 0 0 0 19-18.5c-5.923-6.429-12.257-12.263-19-17.5Zm-36 35a522.556 522.556 0 0 1-19 19.5c6.761 6.469 14.594 11.302 23.5 14.5 5.927-3.757 11.094-8.424 15.5-14a282.878 282.878 0 0 0-20-20Zm146 0a495.007 495.007 0 0 1-18.5 19c.547 3.543 2.713 5.043 6.5 4.5l22-13a49.864 49.864 0 0 0-10-10.5Zm-74 1c-5.645 5.98-11.312 11.98-17 18a229.509 229.509 0 0 0 18 18 229.509 229.509 0 0 0 18-18c-5.743-6.747-12.077-12.747-19-18Zm-35 36c-1.216 1.951-2.882 3.451-5 4.5 3.946 1.324 7.946 1.991 12 2a63.707 63.707 0 0 0-7-6.5Z" opacity=".972"/><path d="M498.704 404c45.553-2.549 78.387 16.451 98.5 57 14.794 42.322 5.961 78.822-26.5 109.5-38.845 27.807-78.178 28.474-118 2-31.883-27.321-42.716-61.488-32.5-102.5 13.255-37.427 39.422-59.427 78.5-66Zm-1 23h8c-4.015 34.858-23.015 56.691-57 65.5a40.914 40.914 0 0 1-9 .5c-.167-14.332 4.333-26.998 13.5-38 11.837-14.323 26.671-23.656 44.5-28Zm31 2c23.082 6.577 39.082 21.077 48 43.5a3.943 3.943 0 0 1-1 2c-52.906 7.24-82.739 37.407-89.5 90.5-22.289-9.121-37.122-25.121-44.5-48 38.773-4.953 65.94-25.286 81.5-61a102.352 102.352 0 0 0 5.5-27Zm42 69h11c-2.581 36.085-21.247 59.252-56 69.5a68.766 68.766 0 0 1-15 1.5c1.209-32.59 16.876-55.09 47-67.5a249.688 249.688 0 0 1 13-3.5Z" opacity=".96"/></g></svg>