<svg xmlns="http://www.w3.org/2000/svg" width="740.273" height="588.942"><g fill="#6D2DF6" fill-rule="evenodd"><path d="M549.273 0c44.32.835 72.487 22.501 84.5 65 5.883 42.74-10.617 73.24-49.5 91.5 18.001-.499 33.668-6.832 47-19a904.012 904.012 0 0 1 27-30c26.146-16.312 49.98-13.479 71.5 8.5a118 118 0 0 1 10 18 100.2 100.2 0 0 1 0 20c-21.104 38.771-51.604 67.604-91.5 86.5-34.676 13.971-70.176 16.805-106.5 8.5a11958.528 11958.528 0 0 1-50.5 90.5 810.149 810.149 0 0 1 76 55c12.855 14.204 23.355 30.037 31.5 47.5a2301.131 2301.131 0 0 1 39 82c8.207 29.753-1.96 50.587-30.5 62.5-25.192 6.831-44.692-.669-58.5-22.5a5706 5706 0 0 0-44-91 84.943 84.943 0 0 0-14.5-16.5c-25.71-18.863-53.044-35.197-82-49-1.333-.667-2.667-.667-4 0-47.872 48.732-105.538 66.732-173 54-20.13-4.736-38.797-12.736-56-24-20.049-17.579-24.216-38.412-12.5-62.5 14.535-22.962 35.035-30.796 61.5-23.5a258.934 258.934 0 0 0 28 12c14.425 2.913 28.425 1.58 42-4 22.68-11.68 40.513-28.513 53.5-50.5a18679.038 18679.038 0 0 1 60.5-114.5c-18.057-2.201-34.057 2.465-48 14a655.949 655.949 0 0 0-30 31c-26.209 20.291-51.376 19.124-75.5-3.5-13.995-18.961-13.995-37.961 0-57 20.845-29.986 47.678-52.82 80.5-68.5 40.717-16.052 82.05-17.719 124-5a129.19 129.19 0 0 1 20.5 8.5c-13.838-41.48-3.338-75.314 31.5-101.5 11.845-7.116 24.512-11.282 38-12.5Zm1 32c28.34.51 45.84 14.51 52.5 42 1.46 29.881-12.374 48.381-41.5 55.5-32.754.587-51.42-15.413-56-48 2.711-27.87 17.711-44.37 45-49.5Zm-162 97c30.366-2.408 59.033 3.426 86 17.5a1378.077 1378.077 0 0 0 62 33c51.232 19.817 94.732 8.984 130.5-32.5 4.222-6.888 9.722-12.388 16.5-16.5 13.227-3.403 21.393 1.43 24.5 14.5-17.864 29.532-42.364 51.699-73.5 66.5-31.98 12.131-64.48 13.631-97.5 4.5-6.11.639-11.61 2.805-16.5 6.5a6061.406 6061.406 0 0 0-72 129 995.993 995.993 0 0 1 93 63c12.521 13.529 22.688 28.696 30.5 45.5a1794.832 1794.832 0 0 1 37.5 81.5c-4.498 13.749-13.498 18.083-27 13l-3.5-3.5c-15.65-31.969-31.318-63.969-47-96-5.044-8.051-11.21-15.217-18.5-21.5-30.099-23.381-62.766-42.714-98-58-8.846-3.601-17.512-3.267-26 1-43.299 49.543-96.966 66.543-161 51-12.74-4.127-24.573-9.961-35.5-17.5-6.75-10.073-5.25-18.907 4.5-26.5 4.766-2.31 9.766-2.977 15-2 37.242 20.964 74.242 20.63 111-1 25.187-16.184 44.354-37.684 57.5-64.5a6965.34 6965.34 0 0 1 52-99 317.567 317.567 0 0 0 20.5-43c-29.737-14.092-60.07-15.592-91-4.5a133.722 133.722 0 0 0-26 17 614.105 614.105 0 0 0-29 30c-10.86 7.942-20.694 6.775-29.5-3.5-2.086-4.167-1.753-8.167 1-12 13.461-18.461 29.294-34.628 47.5-48.5 18.97-12.487 39.636-20.32 62-23.5Z" opacity=".971"/><path d="M251.273 43c55.334-.167 110.668 0 166 .5 7.337 4.153 11.67 10.319 13 18.5-1.343 6.844-5.343 11.344-12 13.5-56 .667-112 .667-168 0-11.762-4.377-15.262-12.543-10.5-24.5 2.954-4.15 6.787-6.817 11.5-8Z" opacity=".978"/><path d="M54.273 159c53.001-.167 106.001 0 159 .5 12.122 2.125 17.29 9.292 15.5 21.5-1.93 5.598-5.764 9.098-11.5 10.5-55.667.667-111.333.667-167 0-11.198-2.88-15.365-10.046-12.5-21.5.883-2.602 2.383-4.769 4.5-6.5 3.801-2.416 7.801-3.916 12-4.5Z" opacity=".973"/><path d="M112.273 293c52.334-.167 104.668 0 157 .5 9.054 2.057 14.387 7.723 16 17-1.809 7.81-6.475 13.143-14 16-53.333.667-106.667.667-160 0-13.739-.618-19.572-7.784-17.5-21.5 3.636-7.901 9.802-11.901 18.5-12Z" opacity=".954"/><path d="M11.273 444c47.668-.167 95.334 0 143 .5 12.143 4.365 15.643 12.532 10.5 24.5-4.232 5.192-9.732 7.692-16.5 7.5a4420.29 4420.29 0 0 1-133 0C2.8 474.075-2.033 466.575.773 454c2.08-4.916 5.58-8.25 10.5-10Z" opacity=".972"/></g></svg>